<mxfile host="Electron" modified="2024-04-05T05:37:56.153Z" agent="Mozilla/5.0 (Windows NT 10.0; Win64; x64) AppleWebKit/537.36 (KHTML, like Gecko) draw.io/24.0.4 Chrome/120.0.6099.109 Electron/28.1.0 Safari/537.36" etag="hSHOeL8aV3cRmiwAnptv" version="24.0.4" type="device">
  <diagram name="Page-1" id="gYG7q7yfArdB3nUY0Wky">
    <mxGraphModel dx="487" dy="-1416" grid="0" gridSize="10" guides="1" tooltips="1" connect="1" arrows="1" fold="1" page="0" pageScale="1" pageWidth="850" pageHeight="1100" background="#ffffff" math="0" shadow="0">
      <root>
        <mxCell id="0" />
        <mxCell id="1" parent="0" />
        <UserObject label="" tags="Background" id="y_fMPFTzz9CIE6H5T-Y4-1">
          <mxCell style="vsdxID=1000;fillColor=#0078d4;gradientColor=none;fillOpacity=10;strokeOpacity=10;shape=stencil(nZBLDoAgDERP0z3SIyjew0SURgSD+Lu9kMZoXLhwN9O+tukAlrNpJg1SzDH4QW/URgNYgZTkjA4UkwJUgGXng+6DX1zLfmoymdXo17xh5zmRJ6Q42BWCfc2oJfdAr+Yv+AP9Cb7OJ3H/2JG1HNGz/84klThPVCc=);strokeColor=none;strokeWidth=3;spacingTop=-3;spacingBottom=-3;spacingLeft=-3;spacingRight=-3;points=[[0.47,0,0]];labelBackgroundColor=none;rounded=0;html=1;whiteSpace=wrap;fontStyle=0" vertex="1" parent="1">
            <mxGeometry x="1632" y="2622" width="729" height="480" as="geometry" />
          </mxCell>
        </UserObject>
        <UserObject label="" tags="Background" id="y_fMPFTzz9CIE6H5T-Y4-2">
          <mxCell style="vsdxID=1035;fillColor=none;gradientColor=none;shape=stencil(fY9LDoAgDERP0z3SIyjew0SURgSD+Lu9kMZoTHQ303nTtIDlbJpJgxRzDH7QG7XRAFYgJTmjA8WkABVg2fmg++AX17KfmkxmNfo1b9i5J3JDiuPpagYtuU+wED/oFX7ASdzXdGQtP/PM39enEX+O6gQ=);strokeColor=#595959;strokeWidth=3;spacingTop=-3;spacingBottom=-3;spacingLeft=-3;spacingRight=-3;points=[];labelBackgroundColor=none;rounded=0;html=1;whiteSpace=wrap;fontStyle=0" vertex="1" parent="1">
            <mxGeometry x="2033" y="2798" width="21" height="103" as="geometry" />
          </mxCell>
        </UserObject>
        <UserObject label="" tags="Background" id="y_fMPFTzz9CIE6H5T-Y4-3">
          <mxCell style="vsdxID=1036;fillColor=none;gradientColor=none;strokeColor=none;spacingTop=-3;spacingBottom=-3;spacingLeft=-3;spacingRight=-3;points=[];labelBackgroundColor=none;rounded=0;html=1;whiteSpace=wrap;fontStyle=0" vertex="1" parent="1">
            <mxGeometry x="1654" y="2736" width="50" height="50" as="geometry" />
          </mxCell>
        </UserObject>
        <mxCell id="y_fMPFTzz9CIE6H5T-Y4-4" style="vsdxID=1037;fillColor=#5ea0ef;gradientColor=none;shape=stencil(lVLRDoIwDPyaPbKMDQWfFf9jkQGLk5EyBf7eYZcgYIy+tXfXdteOiGNXy1YRzjoH9qp6XbiaiBPhXDe1Au18REROxLG0oCqw96bAvJWTcopu9jF1GLAuy2iSTlWcjYjEjL3yM8olXDwHQb4XlO1QDuMGCqI4pvGiJaNJEhSRHHQXgXXSadsEGjkjoVKRnxeVRlahFVJdr1S7gcMLjW7UYngqltO/2OH0kK7szNC8Iv55RX/bYT/Y8cF8rFIbg7d+59fH9RB+DJE/AQ==);strokeColor=none;spacingTop=-3;spacingBottom=-3;spacingLeft=-3;spacingRight=-3;points=[];labelBackgroundColor=none;rounded=0;html=1;whiteSpace=wrap;fontStyle=0" vertex="1" parent="y_fMPFTzz9CIE6H5T-Y4-3">
          <mxGeometry x="1" y="3" width="45" height="45" as="geometry" />
        </mxCell>
        <mxCell id="y_fMPFTzz9CIE6H5T-Y4-5" style="vsdxID=1038;fillColor=#5ea0ef;gradientColor=none;shape=stencil(xVnJctswDP0aH8Phvpy7/IendRJP3TijuG389wUrERJAi3Y7lnqzIZJ6BB5WbcyHt+ft626j5dupO37b/dp/PT1vzMeN1vuX5123P8Gvjfm0MR8ej93uqTv+ePna/3/d5pX51/fjz3zCe7/PRhF03qXluZfIP/8+94u33Rd40g2LnRI69ou7M4qM60XDIiUlOW+64mH7vn976I6n7Wl/fJm+Tx623dPuAd738HjYPg1H9Y/efu12rxPxFYS2RqgIwrk7/zU+eQO+w/7ldnVT20QjZCCLVRDWzt8+n67o7bMokNt7kJBDtRbxrvdXDfsk4Q2zT0LQBaEUxhKIVrj7QmxQCDRmQqXEQe1N02i/nBopjW5gxjU3hxMadrJOaM4kEFEmOSdSYod6vZYOGm+/TD0ppGPUk0Ix6nmhmHfAqWG5O1GMSiqRGPmU1IKC1ElE/f9A2lQ7SOIOYgBjZD4s1XIQKTcab7/MDVupHeglaWKrfQgCp1nrStc9mHq8cZh2UQXBNVQQ0b1RBZHndu1FUlQF+t7Ma4RmE4Rk2T2LEsGoLJYAY2x0C4alyjt0qrzDeILxknHunOFa3nGVGpRKyiC4YX0Ef2mEWmPRMdBOIKLZQzvhKJcCFAd2OSUwO0HC5HYCnjA7AZeo06WAsXeVUsQxPYKIQszG4bYJC2qRUukGalAuOS+MoRoFq18JzTxtQ2g2RAmgFYoCm5BViBRrIiUaOCEhqciuvZq7z7378nVklQdAZDS5jo4YiIvvxvHKi6scKMPzAIgU63MC991VMYLSbK1HR3mba1iqx/VocYMnUtf1CnuCsiGWxDrnGRccg1opgJqokdKaAdYJNs/IEhpgoddihVd0/zzR+Lc8ZSst0uhy0TJ2tdL0BmJQJgWFtXWxeighfdjw5UfX71C4pbSW5yKyOEt414NIjwePIlXSoUFR4dwg8al45uULJhwhnZG2Q5ScwesTA6vHGnBA5iGVewbWCqsoWFiF0bvg96UBm20iFaN1lrEpmA6lkjjzYxfxPK4heL+qLeosVRJ0HCFuuEVxymBwVaE7KkmyaQA16XQHbpANkkO7ZWgWBVaoxjAOSiM+LM0i2qzUp2bfuG+f3Ih/OlUDwyxiTZ+tCvWA46cVmr5UjaKyiFXBQHk6DIoaibNKoc5tnceIlmNMlHJaLjoTYRg1A6j5gKPuyLLkvr1ES4m8XAKWUSsDE9lg2ICX3zcVt2OWGWeOg8hAYC8+rWuYelzFQpbBwXwJWcaUWcZcyGLDl/Hdt25QpSidD8oIvYggILA0C6uKqFwwdwT8hnGcpU7itJ9nQC5AmRuBKFZfbxwlwfTdi7M0j2MlK2uzTGuC0o9zqTPe3SyIsipAxqEXWjJixh1rEMZTWZkRCpBCcCRqI7FC/rI0owFLg21BhcybPIVqxk9AWNtJLISnpAsMbcI504R0kgDmnwypMZ0aDx1SiROa3EilsY1ZI7coNgDJ6UZxiI7lP7NmkxJFPacyVacXKEQoOOOCwbvi5bWeA36Mn8kf94dD/5V9+px/VgdR/0nefPoN);strokeColor=none;spacingTop=-3;spacingBottom=-3;spacingLeft=-3;spacingRight=-3;points=[];labelBackgroundColor=none;rounded=0;html=1;whiteSpace=wrap;fontStyle=0" vertex="1" parent="y_fMPFTzz9CIE6H5T-Y4-3">
          <mxGeometry width="50" height="50" as="geometry" />
        </mxCell>
        <mxCell id="y_fMPFTzz9CIE6H5T-Y4-6" style="vsdxID=1039;fillColor=#FFFFFF;gradientColor=none;shape=stencil(xZbbTsMwDIafppe1EjvHaxjvUbFuqyjrlBY23p6UVGUOqgCJlbvUzuHrn/iXC7rrD9WpLlD0Q+ie6nOzHQ4F3ReIzfFQh2aIo4I2Bd3tulDvQ/dy3KbvUzXOHEfP3eu4wyWtEyD9uAjFWwpIcPoj8JCmV+ExJsM0HZUHQWlBmFagUCBsik3TiMBKtq2Y8mV1afoydEM1NN2R5doq7Osynlfu2mrPUv25rk9XYblMaDw4ywG1BdSMzxEIzX8bgfRajBHIcEQVERmhFILxKQPWrKahAsRMQwTDCR2C4k/HaTCraWg1UCaikWD5PaMDx9/hrOvtCcc7k19qRYLxjJHfs3dg7e0I2+b4m+LnXiENCK6mjzvgsgIyVlWugI9nOG4WCAIXtv0rEcQy5FhZHJEcIPez6BeGI2ozQ98eUWvATEYVQ+YbxvhnXq4mIwFlnkEaeDkqBUpxy5g9ZAXCaE8uI7SgiD9GNd/9PyDG6s9FdAI0f4xSr6si94wfmEAcfLYbu6ZtU7dync/bkxhKrQ1t3gE=);strokeColor=none;spacingTop=-3;spacingBottom=-3;spacingLeft=-3;spacingRight=-3;points=[];labelBackgroundColor=none;rounded=0;html=1;whiteSpace=wrap;fontStyle=0" vertex="1" parent="y_fMPFTzz9CIE6H5T-Y4-3">
          <mxGeometry x="6" y="18" width="11" height="14" as="geometry" />
        </mxCell>
        <mxCell id="y_fMPFTzz9CIE6H5T-Y4-7" style="vsdxID=1040;fillColor=#FFFFFF;gradientColor=none;shape=stencil(nZTRcoMgEEW/xkd3gFWE5zT9DyZBZWo1g6axf18sOBVbTdI3uJwL7IXZBA99rS46YaQfbPemb+Y81Am+JIyZttbWDG6U4DHBQ9lZXdnu2p79/KImchq9dx/TDqP3kcnByKefSQkovpVXDzem3YTJNkgFFPRRmFMo8gjOJHC6NCh7cqs2GDLCAb3BBgcSCpR5LVCCAymibQUFGZQxVaPpU9sNajBdG5XXKFvp1B2Zlo2qoqX+pvVlIdPtqvaOD4bT1fqnoAHIIJtTCxJ3Qc5lsUAhSBmoIOUc5rrwN4RzarP0930XjvvvSx7/CuSpLyYY5Nkzhqksvv971jkjBR7HjALyVcyMAedxzCwHIeOcqZPimCmHbCfmheGfPNkJ+07UbvDTB0rTNL6NLNfXfcNJvufg8Qs=);strokeColor=none;spacingTop=-3;spacingBottom=-3;spacingLeft=-3;spacingRight=-3;points=[];labelBackgroundColor=none;rounded=0;html=1;whiteSpace=wrap;fontStyle=0" vertex="1" parent="y_fMPFTzz9CIE6H5T-Y4-3">
          <mxGeometry x="20" y="18" width="10" height="14" as="geometry" />
        </mxCell>
        <mxCell id="y_fMPFTzz9CIE6H5T-Y4-8" style="vsdxID=1041;fillColor=#FFFFFF;gradientColor=none;shape=stencil(vVXLctswDPwaHY0hCT7PSfofmkS2NVUsD6006d8XLh8WJNu5JLlJIMAFFguwwYfTvj12jRKnKY6/u/f+Zdo3+Ngo1R/2Xewn+mrwqcGH7Ri7XRzfDi/p/9iePc9fr+Of8w0fKQ7B63OQEn+TwSMo/G/5lfzb+EynMfs7D0GlgJgjtIVsyT6arlD80gDoss+m/ehPmzhO7dSPh3Qu0tnQxl23IcDNdmh37Oj03nXHlTmn+PwWU00yHVoNweYE5DoDlUtxoEP2yiavwPnshWuvYlIQ7sHPQ0pGCEJxeBtAGA5vHATk8ESuMRzeUM/u4isNQnN8HcAbjq/ASw6vBUjF4WdOxWIBzW19aAceuT5UYbSmX5vDWvxFypDz5Ib+MBM78avCFejrSrfgFpVo0pVkxQQEK9mNGqz+qXo8Cc0xdEkZuts10WC4xfQiNWzRIAuC1yQFIH5pUXfHF2l/FM3LdQZFv/oyGdkkPcjSH1x7FZMBvAc/DykZqTrRBR51XRUFHj04x+FJcUZzeNqO3t5ukTFg5KJFM/RCh2ANoo2EpfBvUN2SoQu8rEKsU15WqQThOD81rC43CWHBTvG5yo03YD3nxtDOMowbzkyobP/APH7+mNLH5SXe9sOQHvL5+fLlJlN69fHpHw==);strokeColor=none;spacingTop=-3;spacingBottom=-3;spacingLeft=-3;spacingRight=-3;points=[];labelBackgroundColor=none;rounded=0;html=1;whiteSpace=wrap;fontStyle=0" vertex="1" parent="y_fMPFTzz9CIE6H5T-Y4-3">
          <mxGeometry x="33" y="18" width="8" height="14" as="geometry" />
        </mxCell>
        <UserObject label="&lt;div style=&quot;font-size: 1px&quot;&gt;&lt;p style=&quot;text-align:center;margin-left:0;margin-right:0;margin-top:0px;margin-bottom:0px;text-indent:0;vertical-align:middle;direction:ltr;&quot;&gt;&lt;/p&gt;&lt;/div&gt;" tags="Background" id="y_fMPFTzz9CIE6H5T-Y4-9">
          <mxCell style="verticalAlign=middle;align=center;overflow=width;vsdxID=1042;fillColor=#d3f9ff;gradientColor=none;strokeOpacity=20;shape=stencil(nZBLDoAgDERP0z3SIyjew0SURgSD+Lu9kMZoXLhwN9O+tukAlrNpJg1SzDH4QW/URgNYgZTkjA4UkwJUgGXng+6DX1zLfmoymdXo17xh5zmRJ6Q42BWCfc2oJfdAr+Yv+AP9Cb7OJ3H/2JG1HNGz/84klThPVCc=);strokeColor=#449cdd;strokeWidth=3;spacingTop=-3;spacingBottom=-3;spacingLeft=-3;spacingRight=-3;points=[];labelBackgroundColor=none;rounded=0;html=1;whiteSpace=wrap;fontStyle=0" vertex="1" parent="1">
            <mxGeometry x="1974" y="2681" width="318" height="80" as="geometry" />
          </mxCell>
        </UserObject>
        <UserObject label="&lt;div style=&quot;font-size: 1px&quot;&gt;&lt;p style=&quot;text-align:center;margin-left:0;margin-right:0;margin-top:0px;margin-bottom:0px;text-indent:0;vertical-align:middle;direction:ltr;&quot;&gt;&lt;/p&gt;&lt;/div&gt;" tags="Background" id="y_fMPFTzz9CIE6H5T-Y4-10">
          <mxCell style="verticalAlign=middle;align=center;overflow=width;vsdxID=1043;fillColor=#d3f9ff;gradientColor=none;strokeOpacity=20;shape=stencil(nZBLDoAgDERP0z3SIyjew0SURgSD+Lu9kMZoXLhwN9O+tukAlrNpJg1SzDH4QW/URgNYgZTkjA4UkwJUgGXng+6DX1zLfmoymdXo17xh5zmRJ6Q42BWCfc2oJfdAr+Yv+AP9Cb7OJ3H/2JG1HNGz/84klThPVCc=);strokeColor=#449cdd;strokeWidth=3;spacingTop=-3;spacingBottom=-3;spacingLeft=-3;spacingRight=-3;points=[];labelBackgroundColor=none;rounded=0;html=1;whiteSpace=wrap;fontStyle=0" vertex="1" parent="1">
            <mxGeometry x="1993" y="2702" width="318" height="80" as="geometry" />
          </mxCell>
        </UserObject>
        <UserObject label="" tags="Background" id="y_fMPFTzz9CIE6H5T-Y4-11">
          <mxCell style="vsdxID=1055;fillColor=none;gradientColor=none;points=[];labelBackgroundColor=none;rounded=0;strokeColor=none;html=1;whiteSpace=wrap;fontStyle=0" vertex="1" parent="1">
            <mxGeometry x="1570" y="2565" width="102" height="98" as="geometry" />
          </mxCell>
        </UserObject>
        <mxCell id="y_fMPFTzz9CIE6H5T-Y4-12" style="vsdxID=1056;fillColor=none;gradientColor=none;strokeColor=none;spacingTop=-3;spacingBottom=-3;spacingLeft=-3;spacingRight=-3;points=[];labelBackgroundColor=none;rounded=0;html=1;whiteSpace=wrap;fontStyle=0" vertex="1" parent="y_fMPFTzz9CIE6H5T-Y4-11">
          <mxGeometry width="102" height="98" as="geometry" />
        </mxCell>
        <mxCell id="y_fMPFTzz9CIE6H5T-Y4-13" style="vsdxID=1057;fillColor=#FFFFFF;gradientColor=none;shape=stencil(vZTdcsIgEIWfJpfZAZbfa6vvwShqpmnikFj17UsKxGBbZ3rjHZw9YeHL7la4Go725CpGhtH37+7S7MZjhW8VY013dL4Zw6rCdYWrfe/dwffnbhf3Jzs5p9VH/zmdcI3foQBGp68YuUWFEvK930S79dsQ89nOQZho97dZ4lFJHoqAojjSMFDZU9trM9S+H+3Y9F2Mx4Sktf7g6pCw3rf2UISGi3OnhUyXV9yefXwSjUEOkqX8SdECdHrllRUH39JWcdAqOTA5ADOZpEgKyvwNR/L54RmORDCmpCOAYEGHBY98HR2mgD7iAfNAh/MSDynRSAJUlGyeF43UP4tGF1w0K6AoYC+smFzzMxFGQfASiTHzlTIVweYfnsnoUDUlGCXA4LPkUt9bMEmGgNFlekEBsUw/3zonXzYz/trNbdP9p/nD4j449k3bxrmzjD8OmiDFIYXrLw==);strokeColor=#ffd965;spacingTop=-3;spacingBottom=-3;spacingLeft=-3;spacingRight=-3;points=[];labelBackgroundColor=none;rounded=0;html=1;whiteSpace=wrap;fontStyle=0" vertex="1" parent="y_fMPFTzz9CIE6H5T-Y4-12">
          <mxGeometry x="4" width="97" height="97" as="geometry" />
        </mxCell>
        <mxCell id="y_fMPFTzz9CIE6H5T-Y4-14" style="vsdxID=1058;fillColor=#ffe452;gradientColor=none;fillOpacity=23;strokeOpacity=23;shape=stencil(vZTdcsIgEIWfJpfZAZbfa6vvwShqpmnikFj17UsKxGBbZ3rjHZw9YeHL7la4Go725CpGhtH37+7S7MZjhW8VY013dL4Zw6rCdYWrfe/dwffnbhf3Jzs5p9VH/zmdcI3foQBGp68YuUWFEvK930S79dsQ89nOQZho97dZ4lFJHoqAojjSMFDZU9trM9S+H+3Y9F2Mx4Sktf7g6pCw3rf2UISGi3OnhUyXV9yefXwSjUEOkqX8SdECdHrllRUH39JWcdAqOTA5ADOZpEgKyvwNR/L54RmORDCmpCOAYEGHBY98HR2mgD7iAfNAh/MSDynRSAJUlGyeF43UP4tGF1w0K6AoYC+smFzzMxFGQfASiTHzlTIVweYfnsnoUDUlGCXA4LPkUt9bMEmGgNFlekEBsUw/3zonXzYz/trNbdP9p/nD4j449k3bxrmzjD8OmiDFIYXrLw==);strokeColor=#ffd965;spacingTop=-3;spacingBottom=-3;spacingLeft=-3;spacingRight=-3;points=[];labelBackgroundColor=none;rounded=0;html=1;whiteSpace=wrap;fontStyle=0" vertex="1" parent="y_fMPFTzz9CIE6H5T-Y4-12">
          <mxGeometry x="4" width="97" height="97" as="geometry" />
        </mxCell>
        <mxCell id="y_fMPFTzz9CIE6H5T-Y4-15" style="vsdxID=1059;fillColor=#ffe452;gradientColor=none;shape=stencil(vVbbbtswDP0aP4aQSF2fu+4/jNZJjHlxoLhr8veVK/lCtXExYOubTVI6R4cXqaKHy7E+NxWKyxD6X81r+zwcK/pRIbanYxPaIX5V9FjRw74PzSH0L6fn9H+ux8jx63f/Z9zhmtYZCc6Nq1DckkWAwnfDzxTftae/iq/DU3SGHE8Ixqf4kBeQAqGTKQc5BGXZphZ0XnXd1df2sgv9UA9tf8qYydfV4dDsIuBu39UH5rq8Ns15ZZZrik8vIWkgk9N7UBnulk0owZrMAHOUA5t537JJIxDlKMpnEeCmqGyyetLgDr7xQI7jewGmwNcE5Dl+JK4dxycHEjn+EnUvRVoXKSLwyFIkLajpWHnXmDT5jTkCJC6R06ALiRQ4yxWyCixyhTRIwwWKRe03aji6ZVHDhpbyyOQ9SC5QZEPfKBDFikGuUCwrWwhk5oKZFJr7dxZo3eP0eZN/OUS2mCoLUnKmgtOMZyny6JZcZ0rSgSPOMiouzBZy3FZx4MjFKA4uigpyc3PO0BbQcujYDXnrz3uMPszAedOlb7mGUkyq/Jvq2cxJnGS+yMmCj8uYIi6Ol6AUF8ct3bIagF5toccJhcUAHEdr0d0zoQk9Dump5Gd0nBtzRgdk0/fD9Jtmxio5yC+oewX+X1Lz5YW7Do4fy9W+b7suvQzW/vIpEE3pGUGPbw==);strokeColor=#ffd965;spacingTop=-3;spacingBottom=-3;spacingLeft=-3;spacingRight=-3;points=[];labelBackgroundColor=none;rounded=0;html=1;whiteSpace=wrap;fontStyle=0" vertex="1" parent="y_fMPFTzz9CIE6H5T-Y4-12">
          <mxGeometry width="102" height="98" as="geometry" />
        </mxCell>
        <mxCell id="y_fMPFTzz9CIE6H5T-Y4-16" style="vsdxID=1060;fillColor=#d15900;gradientColor=none;shape=stencil(vVbbTuMwEP2aPHZke3x9ZuE/IkjbaENTuWGBv19nfUnGLUFILG/O+Nhn5swlbvDucmzPXSPYZfLj7+61f5qODf5qhOhPx873U1g1eN/g3X703cGPL6en+H1uZ+S8eh7/zDe8xXOag8H5lGDv0cIA3T/DQ8S3/jFs+oRHAcZEvE8HUAJLVySQFaA0udSAlgmya9/6y86PUzv14ylxxr2h9YduFwh3+6E9kK3La9edV2a+dvHxxceYeNx0DkzmTybBwbrkgSgolpx6TyYlQKqEwhQLT5D0bRS4TXLtgFfkjgMKSh6YjKPkwR+LlBwtMEv5F9RH+XFX6eGGpIcbEIKkxwnQ/Ofyw6g8xgJKKg8DU6VGmlJ4WR1uFw2TSUjATWpkoJHSW6gKQxpKXTqiMK+7Bm+3zedtxomjQ3/6Er4OTGoQlgZWjpTIQvRcVVUH/EpVZa9UTcdu1lxwNndNLjqNYHPFJ/9ASRJQOGW/teTYpjxLyeeqk2AslceCtlQdqxZQ1scA01Sf0D5GbPQkArdXTSk10Wfd6omIsZ/TRyGoqi8WflEmm666Mkw2VtWP5SBuzEy3xR6GGnLKPo9ipPzFocwehnr5rWT2kApVscPWvMTCvMoNTc2NZvx/ifnqHAiL5d++74chPg3W+/VbIJjiOwLv/wI=);strokeColor=#ffd965;spacingTop=-3;spacingBottom=-3;spacingLeft=-3;spacingRight=-3;points=[];labelBackgroundColor=none;rounded=0;html=1;whiteSpace=wrap;fontStyle=0" vertex="1" parent="y_fMPFTzz9CIE6H5T-Y4-12">
          <mxGeometry width="102" height="98" as="geometry" />
        </mxCell>
        <mxCell id="y_fMPFTzz9CIE6H5T-Y4-17" style="vsdxID=1061;fillColor=none;gradientColor=none;strokeColor=none;spacingTop=-3;spacingBottom=-3;spacingLeft=-3;spacingRight=-3;points=[];labelBackgroundColor=none;rounded=0;html=1;whiteSpace=wrap;fontStyle=0" vertex="1" parent="y_fMPFTzz9CIE6H5T-Y4-11">
          <mxGeometry x="33" y="20" width="36" height="57" as="geometry" />
        </mxCell>
        <mxCell id="y_fMPFTzz9CIE6H5T-Y4-18" style="vsdxID=1062;fillColor=#ffd70f;gradientColor=none;shape=stencil(vVfbcpswEP0aHr2j++U5Tf+DSbDNlBqPTBrn7ysiLlkkFLfD8AbSao/27NmVVPCn27m8VgUjt861v6r3+rU7F/xHwVh9OVeu7vxXwZ8L/nRsXXVy7dvlNfxfy96y//rd/uk93MM6K0D1ixj5CAPcgvwc+BnMS/fiJ91gTg0IHuzdsIBSkDQMrflkHPrfT5NDea9vB9d2ZVe3lzBPwlxTulN18ICHY1Oe0NTtvaqu0fCwxaa+5CKa0ZP2ioHlmALgIksB1xEFwiAKuAZC0053oCCDnrSX097WKIsokDaiQGEVRE4nZe3BAAPCELpUQPV6SBIMxRFxUBznlIPEQpFzNWwUEs2EFMEbA9ash6RGuseIBBCFI5LANHJpKWi1aUSZJAkNzGJ4O24oGZGYZD2GxCZJDRnxxSxXXO4QUQ4+3XzEVElzBqzccIH2vQnn2GjIcMyAqUVpg8CVnXApQe1Gcg4+zZmvBHwkGDacESsUyIgCXDgJj2Tr/p5pBTn4BynTOtvh2RTNFxVgDhI+JdDdzrgc/IOkeRfa5jgQy0MOJG43sU/lD7ltK+GfdDDDr5FmcH/yLnhWB2x51wHBioUOlj7F1Nd30cEqfJo0CQQvkBZsTjjxAn8FzCB8e6fGV3BJgBhczUAz7YmS6cI9JmXWwX2BOLqk4r87NH1Al9EOmVnucCEbYUGvRL1D5WTQ0wf7tznyH/Mb61g3TXiifZ1fvsn8UHjP8ee/);strokeColor=none;strokeWidth=3;spacingTop=-3;spacingBottom=-3;spacingLeft=-3;spacingRight=-3;points=[];labelBackgroundColor=none;rounded=0;html=1;whiteSpace=wrap;fontStyle=0" vertex="1" parent="y_fMPFTzz9CIE6H5T-Y4-17">
          <mxGeometry width="36" height="57" as="geometry" />
        </mxCell>
        <mxCell id="y_fMPFTzz9CIE6H5T-Y4-19" style="vsdxID=1063;fillColor=#ff9300;gradientColor=none;fillOpacity=75;strokeOpacity=75;shape=stencil(vVTBboMwDP2aHLGCQxJy7rr/iNYA0RipAlu7v19YULsAotqh3ILtZz8/GxN26Bt9NgRpP3j3bi72NDSEvRBE2zXG2yG8CDsSdqicN7V3n90pfp/1GDm+PtzXmOEaccgB2YhC+h0tSgErfi2vEdDa7n8A7d+C108AzqCYAH5CcMh5tEwxqoS8TJNKkGqKyfTV9pl3gx6s66KfRl+rfW2yUDCrWl0nrv5izHlhXqVYKJAipVhA+YhhEAKfxzBVfVk+VJcbopcgcS66EElLkgPlSU4KZb5XRxvV1zvKYTEilc4IgaokI95Ee/4OCYSCpwQFUNwmeBviDoIvit8XeF1wAUrOVyj9bbduwR4dPT5F4XG/fJVt23g4//rnlzKY4pVlxx8=);strokeColor=none;strokeWidth=3;spacingTop=-3;spacingBottom=-3;spacingLeft=-3;spacingRight=-3;points=[];labelBackgroundColor=none;rounded=0;html=1;whiteSpace=wrap;fontStyle=0" vertex="1" parent="y_fMPFTzz9CIE6H5T-Y4-17">
          <mxGeometry x="14" y="35" width="1" height="15" as="geometry" />
        </mxCell>
        <mxCell id="y_fMPFTzz9CIE6H5T-Y4-20" style="vsdxID=1064;fillColor=#ff9300;gradientColor=none;fillOpacity=75;strokeOpacity=75;shape=stencil(vVPLDoMgEPwajhoUbeLZ2v8gFZWUgllptX9fLKQ+aNPEJt6W3VlmZ2EQybuGtgzFuNOgLqznpW4QOaI45rJhwLWJECkQySsFrAZ1k6U9t3REjtFV3ccbBtuHx44YP+wpJSHOXpmTBVM4myo4cBqmkcWDa0gOYeZSHsZBIuw4hoAOvAtAaaq5kgt+QaFmgWELKkHrRanrGWu9tJtPcDkTkyVhkn0k3yznPb23oR30rMmn8Tbr8Ve02+t4P+PPp/m2mx2k/HCNCSa/VVwIa9d5fe1Pk7LeJsUT);strokeColor=none;strokeWidth=3;spacingTop=-3;spacingBottom=-3;spacingLeft=-3;spacingRight=-3;points=[];labelBackgroundColor=none;rounded=0;html=1;whiteSpace=wrap;fontStyle=0" vertex="1" parent="y_fMPFTzz9CIE6H5T-Y4-17">
          <mxGeometry x="8" y="17" width="18" height="2" as="geometry" />
        </mxCell>
        <mxCell id="y_fMPFTzz9CIE6H5T-Y4-21" style="vsdxID=1065;fillColor=#ff9300;gradientColor=none;fillOpacity=75;strokeOpacity=75;shape=stencil(vVPLDoMgEPwajhoUbeLZ2v8gFZWUgllptX9fLKQ+aNPEJt6W3VlmZ2EQybuGtgzFuNOgLqznpW4QOaI45rJhwLWJECkQySsFrAZ1k6U9t3REjtFV3ccbBtuHx44YP+wpJSHOXpmTBVM4myo4cBqmkcWDa0gOYeZSHsZBIuw4hoAOvAtAaaq5kgt+QaFmgWELKkHrRanrGWu9tJtPcDkTkyVhkn0k3yznPb23oR30rMmn8Tbr8Ve02+t4P+PPp/m2mx2k/HCNCSa/VVwIa9d5fe1Pk7LeJsUT);strokeColor=none;strokeWidth=3;spacingTop=-3;spacingBottom=-3;spacingLeft=-3;spacingRight=-3;points=[];labelBackgroundColor=none;rounded=0;html=1;whiteSpace=wrap;fontStyle=0" vertex="1" parent="y_fMPFTzz9CIE6H5T-Y4-17">
          <mxGeometry x="8" y="20" width="18" height="2" as="geometry" />
        </mxCell>
        <UserObject label="&lt;div style=&quot;font-size: 1px&quot;&gt;&lt;p style=&quot;text-align:left;margin-left:0;margin-right:0;margin-top:0px;margin-bottom:0px;text-indent:0;vertical-align:middle;direction:ltr;&quot;&gt;&lt;font style=&quot;font-size:33.87px;font-family:Segoe UI Semibold;color:#595959;direction:ltr;letter-spacing:0px;line-height:120%;opacity:1&quot;&gt;&lt;span&gt;Platform &lt;/span&gt;&lt;/font&gt;&lt;font style=&quot;font-size:33.87px;font-family:Segoe UI Semibold;color:#595959;direction:ltr;letter-spacing:0px;line-height:120%;opacity:1&quot;&gt;&lt;span&gt;Connectivity &lt;/span&gt;&lt;/font&gt;&lt;font style=&quot;font-size:33.87px;font-family:Segoe UI Semibold;color:#595959;direction:ltr;letter-spacing:0px;line-height:120%;opacity:1&quot;&gt;&lt;span&gt;S&lt;/span&gt;&lt;/font&gt;&lt;font style=&quot;font-size:33.87px;font-family:Segoe UI Semibold;color:#595959;direction:ltr;letter-spacing:0px;line-height:120%;opacity:1&quot;&gt;&lt;span&gt;ubscription&lt;br&gt;&lt;/span&gt;&lt;/font&gt;&lt;/p&gt;&lt;/div&gt;" tags="Background" id="y_fMPFTzz9CIE6H5T-Y4-22">
          <mxCell style="verticalAlign=middle;align=left;overflow=width;vsdxID=1066;fillColor=none;gradientColor=none;shape=stencil(nZBLDoAgDERP0z3SIyjew0SURgSD+Lu9kMZoXLhwN9O+tukAlrNpJg1SzDH4QW/URgNYgZTkjA4UkwJUgGXng+6DX1zLfmoymdXo17xh5zmRJ6Q42BWCfc2oJfdAr+Yv+AP9Cb7OJ3H/2JG1HNGz/84klThPVCc=);strokeColor=none;points=[];labelBackgroundColor=none;rounded=0;html=1;whiteSpace=wrap;fontStyle=0" vertex="1" parent="1">
            <mxGeometry x="1678" y="2549" width="572" height="80" as="geometry" />
          </mxCell>
        </UserObject>
        <UserObject label="&lt;div style=&quot;font-size: 1px&quot;&gt;&lt;p style=&quot;text-align:left;margin-left:45;margin-right:0;margin-top:8px;margin-bottom:0px;text-indent:-25.4;vertical-align:middle;direction:ltr;&quot;&gt;&lt;/p&gt;&lt;ul style=&quot;margin: 0px; list-style-type: disc; font-size: 29px;&quot;&gt;&lt;font style=&quot;font-size: 29px; font-family: &amp;quot;Segoe UI Semibold&amp;quot;; color: rgb(89, 89, 89); direction: ltr; letter-spacing: 0px; line-height: 120%; opacity: 1;&quot;&gt;&lt;li&gt;Azure Firewall&lt;/li&gt;&lt;li&gt;ExpressRoute&lt;/li&gt;&lt;li&gt;&lt;font style=&quot;background-color: initial; font-size: 29px; direction: ltr; letter-spacing: 0px; line-height: 120%; opacity: 1;&quot;&gt;VPN (P2&lt;/font&gt;&lt;font style=&quot;background-color: initial; font-size: 29px; direction: ltr; letter-spacing: 0px; line-height: 120%; opacity: 1;&quot;&gt;S&lt;/font&gt;&lt;font style=&quot;background-color: initial; font-size: 29px; direction: ltr; letter-spacing: 0px; line-height: 120%; opacity: 1;&quot;&gt;/S2S)&lt;/font&gt;&lt;br&gt;&lt;/li&gt;&lt;/font&gt;&lt;/ul&gt;&lt;p&gt;&lt;/p&gt;&lt;/div&gt;" tags="Background" id="y_fMPFTzz9CIE6H5T-Y4-23">
          <mxCell style="verticalAlign=middle;align=left;overflow=width;vsdxID=1067;fillColor=none;gradientColor=none;shape=stencil(nZBLDoAgDERP0z3SIyjew0SURgSD+Lu9kMZoXLhwN9O+tukAlrNpJg1SzDH4QW/URgNYgZTkjA4UkwJUgGXng+6DX1zLfmoymdXo17xh5zmRJ6Q42BWCfc2oJfdAr+Yv+AP9Cb7OJ3H/2JG1HNGz/84klThPVCc=);strokeColor=none;spacingTop=-3;spacingBottom=-3;spacingLeft=-3;spacingRight=-3;points=[];labelBackgroundColor=none;rounded=0;html=1;whiteSpace=wrap;fontStyle=0" vertex="1" parent="1">
            <mxGeometry x="2051" y="2745" width="262" height="230" as="geometry" />
          </mxCell>
        </UserObject>
        <UserObject label="&lt;div style=&quot;font-size: 1px&quot;&gt;&lt;p style=&quot;text-align:left;margin-left:20;margin-right:0;margin-top:8px;margin-bottom:0px;text-indent:0;vertical-align:middle;direction:ltr;&quot;&gt;&lt;font style=&quot;font-size:25.4px;font-family:Segoe UI Semibold;color:#595959;direction:ltr;letter-spacing:0px;line-height:120%;opacity:1&quot;&gt;Azure DNS&lt;br&gt;&lt;/font&gt;&lt;/p&gt;&lt;/div&gt;" tags="Background" id="y_fMPFTzz9CIE6H5T-Y4-24">
          <mxCell style="verticalAlign=middle;align=left;overflow=width;vsdxID=1068;fillColor=none;gradientColor=none;shape=stencil(nZBLDoAgDERP0z3SIyjew0SURgSD+Lu9kMZoXLhwN9O+tukAlrNpJg1SzDH4QW/URgNYgZTkjA4UkwJUgGXng+6DX1zLfmoymdXo17xh5zmRJ6Q42BWCfc2oJfdAr+Yv+AP9Cb7OJ3H/2JG1HNGz/84klThPVCc=);strokeColor=none;spacingTop=-3;spacingBottom=-3;spacingLeft=-3;spacingRight=-3;points=[];labelBackgroundColor=none;rounded=0;html=1;whiteSpace=wrap;fontStyle=0" vertex="1" parent="1">
            <mxGeometry x="1717" y="2730" width="200" height="60" as="geometry" />
          </mxCell>
        </UserObject>
        <UserObject label="&lt;div style=&quot;font-size: 1px&quot;&gt;&lt;p style=&quot;text-align:left;margin-left:20;margin-right:0;margin-top:8px;margin-bottom:0px;text-indent:0;vertical-align:middle;direction:ltr;&quot;&gt;&lt;font style=&quot;font-size:25.4px;font-family:Segoe UI Semibold;color:#595959;direction:ltr;letter-spacing:0px;line-height:120%;opacity:1&quot;&gt;Azure Bastion&lt;br&gt;&lt;/font&gt;&lt;/p&gt;&lt;/div&gt;" tags="Background" id="y_fMPFTzz9CIE6H5T-Y4-25">
          <mxCell style="verticalAlign=middle;align=left;overflow=width;vsdxID=1069;fillColor=none;gradientColor=none;shape=stencil(nZBLDoAgDERP0z3SIyjew0SURgSD+Lu9kMZoXLhwN9O+tukAlrNpJg1SzDH4QW/URgNYgZTkjA4UkwJUgGXng+6DX1zLfmoymdXo17xh5zmRJ6Q42BWCfc2oJfdAr+Yv+AP9Cb7OJ3H/2JG1HNGz/84klThPVCc=);strokeColor=none;spacingTop=-3;spacingBottom=-3;spacingLeft=-3;spacingRight=-3;points=[];labelBackgroundColor=none;rounded=0;html=1;whiteSpace=wrap;fontStyle=0" vertex="1" parent="1">
            <mxGeometry x="1719" y="2649" width="200" height="60" as="geometry" />
          </mxCell>
        </UserObject>
        <UserObject label="&lt;div style=&quot;font-size: 1px&quot;&gt;&lt;p style=&quot;text-align:center;margin-left:0;margin-right:0;margin-top:0px;margin-bottom:0px;text-indent:0;vertical-align:middle;direction:ltr;&quot;&gt;&lt;font style=&quot;font-size:25.4px;font-family:Segoe UI Semibold;color:#595959;direction:ltr;letter-spacing:0px;line-height:120%;opacity:1&quot;&gt;Virtual Network Hub&lt;br&gt;&lt;/font&gt;&lt;/p&gt;&lt;/div&gt;" tags="Background" id="y_fMPFTzz9CIE6H5T-Y4-26">
          <mxCell style="verticalAlign=middle;align=center;overflow=width;vsdxID=1070;fillColor=#d3f9ff;gradientColor=none;strokeOpacity=20;shape=stencil(nZBLDoAgDERP0z3SIyjew0SURgSD+Lu9kMZoXLhwN9O+tukAlrNpJg1SzDH4QW/URgNYgZTkjA4UkwJUgGXng+6DX1zLfmoymdXo17xh5zmRJ6Q42BWCfc2oJfdAr+Yv+AP9Cb7OJ3H/2JG1HNGz/84klThPVCc=);strokeColor=#449cdd;strokeWidth=3;spacingTop=-3;spacingBottom=-3;spacingLeft=-3;spacingRight=-3;points=[];labelBackgroundColor=none;rounded=0;html=1;whiteSpace=wrap;fontStyle=0" vertex="1" parent="1">
            <mxGeometry x="2013" y="2721" width="318" height="80" as="geometry" />
          </mxCell>
        </UserObject>
        <UserObject label="" tags="Background" id="y_fMPFTzz9CIE6H5T-Y4-27">
          <mxCell style="vsdxID=1071;fillColor=none;gradientColor=none;strokeColor=none;spacingTop=-3;spacingBottom=-3;spacingLeft=-3;spacingRight=-3;points=[];labelBackgroundColor=none;rounded=0;html=1;whiteSpace=wrap;fontStyle=0" vertex="1" parent="1">
            <mxGeometry x="1963" y="2657" width="80" height="78" as="geometry" />
          </mxCell>
        </UserObject>
        <mxCell id="y_fMPFTzz9CIE6H5T-Y4-28" style="vsdxID=1072;fillColor=#198ab3;gradientColor=none;shape=stencil(vZRLcoMwDEBPwxKNbeHfOk3v4WkMeEohY0iT3r5QkxSRZLoqO1kf+0mWlOGur93RZ4L1Q+ze/TkchjrDl0yI0NY+hmGUMtxnuCu76KvYndpDOh/d5DlJH93ndMMlxXHGphjBvtJZGZD4o3lN7i6+jdY4uwtxNbM4RyAHZZJqdjIMJLkUDfDZI3eX0OexG9wQujaZZ4LGxcrn43t52biKmPqz98c79WNCAyhXhBaMIoSSA0eCyDbkswXlKxgoS/gEguSETyiQdjNGBXb9yxqMJoyrvhG3tDbg0yDUim/89oLW0ICgNbT2ltZ/MDahXQyWVoDiyfMPk0KwhuYkgXat1iD1lhndzf61TRezbzlhfL5PNqj5n8tsFH4XYRmaJu3RpX29OEdVWrq4/wY=);strokeColor=none;spacingTop=-3;spacingBottom=-3;spacingLeft=-3;spacingRight=-3;points=[];labelBackgroundColor=none;rounded=0;html=1;whiteSpace=wrap;fontStyle=0" vertex="1" parent="y_fMPFTzz9CIE6H5T-Y4-27">
          <mxGeometry width="80" height="57" as="geometry" />
        </mxCell>
        <mxCell id="y_fMPFTzz9CIE6H5T-Y4-29" style="vsdxID=1073;fillColor=#f2f2f2;gradientColor=none;shape=stencil(vVHLDsIgEPwajiQI6RfU+h8bu22JCGRB2/69kG1iazx58DazM/vIjjBtmiCi0CplCjecbZ8nYc5Ca+snJJsLEqYTph0C4Ujh4XvmEaqzont41gkL96naodXKrGF6YSfQtUi0OXXDVlqPfJNP6usotUhYbJIUMmQb/GGrAxpRljVycDBuc1hKM2LclX8/7H9nFfB+82Cd45T2+mcspcSRmu4F);strokeColor=none;spacingTop=-3;spacingBottom=-3;spacingLeft=-3;spacingRight=-3;points=[];labelBackgroundColor=none;rounded=0;html=1;whiteSpace=wrap;fontStyle=0" vertex="1" parent="y_fMPFTzz9CIE6H5T-Y4-27">
          <mxGeometry x="19" y="36" width="41" height="41" as="geometry" />
        </mxCell>
        <mxCell id="y_fMPFTzz9CIE6H5T-Y4-30" style="vsdxID=1074;fillColor=#0078d4;gradientColor=none;shape=stencil(xVnLctswDPwaH43h+3FO0//wNEriqWtnZKdJ/75QZUkGKJHy1FZuNkWI5GIJLKCVfji+bt6qlRLHU334WX1sn06vK/1tpdR2/1rV2xP+WunHlX54PtTVS3143z+1/982zczm16/D7+YNn61diOAaIyX+tANKQDD/Rr638zf1D3xan+dbDSG2BvXZwhqQrUX3UmlA07dKAVqd56w3n9vjuj6cNqftYd8+F+2z3aZ+qda44vp5t3khj44fVfWWDJ/3uNvuq3nLTx3KK3YoDdGRQwUBypC3RgvWL3Wo3PKTntKJp4Snh5p2/xJnKpKPklWA1GS+iRCnETAKgqMIGA3CEgQsaAqrlmBvCoDMMDWAleOrj54IAROGngiHDD2RdCACh6mjwv2dWnQS9Sk6wLssBPT16EEX/mv+gMaogRpYM2WQOKXzwIVTAo0emWMuwLMyyNQpVoDVV4DsAih7BY+9gBgoZF6CJojhgIh3pnEGshSCAm/KmFGMkZiRRh7rwOWZzAy86WCc6fXEgDE5gE+ZLBmTk/uB+/ZhKb/MgK3E5QLOKfESA8ZmCUYmbPZUE6VXZHDGl9C5QJ4ZsFGcfejFxTycowZzFc4GH/N87iAwRYM4h6/D2VuQMo9zcue4TMM7pyh5vIcgOVQ3vnOZlD7DtUUuCBC5HIoopJFH0cjjB709RNjlBHjorzRffYqtPCo0BKZJLibqBIGSi5G17CZWLRpQZL4yHTHHF8Ar7vIGrGhRIBQFDYcYD5wFRQMH1ncy3o8IqWN96thI9hjQsZ6f3C8m+MqOoo5FSKPNG5TSw9UGvmsbjKKMjx27PjjEk+rYtpdDeQZqieZj19135efM4gUXiJmcqgKvvhKDWTDTKIXb0Ey7DC2fJRRfATQKMhbVms6XfSieqsJLBiwCxEQnN0VuIKDhLtlLRZ/j7gEaC6QGmFTCkUAbBViqK0YW24unBdp0mGvkxPLjsBtgSglHuv7J4EtBqYq+VItl1BlU4i0tnajsnCzH18mk/MnqS9sHzV5ZuaRhG8CyK2ZB3xa1DBMsmInFx3mAAYorKw+RxizBQVquRC37lAUsVC+Us0GBjtML4Aou5g2SaGBYvwWHWJTH3KGoWIsXsub+ssokmQiHgiJ7jP3AcHB10x3mLnfZT6y3mWTjgmPTVHe1gRQZjJucxKSrYllrbMu9/r5/o7KMWKm7wwAoqVB8v3DTBqnESwwYxENNNUDcc3RqFzEO0vYLekEMM1bM275D0e1WQCZFlecn9VRgwQnDOU3r6AZ28TE29bHh/mpK9/2Xy29prD2RFLsDd5foT/CSr5ATEGPeeDKBfx1rWi7clYsFgzKR8MfwYft5u9u138Uvn/MP4TjUfkTXj38B);strokeColor=none;spacingTop=-3;spacingBottom=-3;spacingLeft=-3;spacingRight=-3;points=[];labelBackgroundColor=none;rounded=0;html=1;whiteSpace=wrap;fontStyle=0" vertex="1" parent="y_fMPFTzz9CIE6H5T-Y4-27">
          <mxGeometry x="21" y="36" width="40" height="39" as="geometry" />
        </mxCell>
        <mxCell id="y_fMPFTzz9CIE6H5T-Y4-31" style="vsdxID=1075;fillColor=#E6E6E6;gradientColor=none;shape=stencil(tVPbcoMgEP0aHt3hpsBzmv4H06AyteKgadK/LxbTuM7EvjRvezkLh7McIg5jawdHOB2nGN7dxZ+mlogXwrnvWxf9lCIijkQc6hBdE8O5P+V8sDNyjj7C53zCNc9pAczMU5x+5Qqj9Cd/zXAb31IvLnAmFWiZ8XEZqBhIlksLiqIDS7E0C3v1YxHDZCcfegTtbGxcke4q6s42qDVenBtWZbbDTlCoMLlSAi8RuYqCkIigAqqeR7Hz/VpvBlhu+hh728QNakBVj9FKgVB4kxVosaMW5cA2ckkOUiK5kqSa433y3y/zT3rtfThmtiuVqaIRR2OgxE/X5v6OJ3Dc7PQvD6Xg7r/ad12277q/9WsqZa+L4zc=);strokeColor=none;spacingTop=-3;spacingBottom=-3;spacingLeft=-3;spacingRight=-3;points=[];labelBackgroundColor=none;rounded=0;html=1;whiteSpace=wrap;fontStyle=0" vertex="1" parent="y_fMPFTzz9CIE6H5T-Y4-27">
          <mxGeometry x="11" y="21" width="12" height="29" as="geometry" />
        </mxCell>
        <mxCell id="y_fMPFTzz9CIE6H5T-Y4-32" style="vsdxID=1076;fillColor=none;gradientColor=none;strokeColor=none;spacingTop=-3;spacingBottom=-3;spacingLeft=-3;spacingRight=-3;points=[];labelBackgroundColor=none;rounded=0;html=1;whiteSpace=wrap;fontStyle=0" vertex="1" parent="y_fMPFTzz9CIE6H5T-Y4-27">
          <mxGeometry x="17" y="42" width="11" height="11" as="geometry" />
        </mxCell>
        <mxCell id="y_fMPFTzz9CIE6H5T-Y4-33" style="vsdxID=1077;fillColor=#ce74b6;gradientColor=none;shape=stencil(vVHLDsIgEPwajiQI6RfU+h8bu22JCGRB2/69kG1iazx58DazM/vIjjBtmiCi0CplCjecbZ8nYc5Ca+snJJsLEqYTph0C4Ujh4XvmEaqzont41gkL96naodXKrGF6YSfQtUi0OXXDVlqPfJNP6usotUhYbJIUMmQb/GGrAxpRljVycDBuc1hKM2LclX8/7H9nFfB+82Cd45T2+mcspcSRmu4F);strokeColor=none;spacingTop=-3;spacingBottom=-3;spacingLeft=-3;spacingRight=-3;points=[];labelBackgroundColor=none;rounded=0;html=1;whiteSpace=wrap;fontStyle=0" vertex="1" parent="y_fMPFTzz9CIE6H5T-Y4-32">
          <mxGeometry y="1" width="10" height="10" as="geometry" />
        </mxCell>
        <mxCell id="y_fMPFTzz9CIE6H5T-Y4-34" style="vsdxID=1078;fillColor=#a33a85;gradientColor=none;shape=stencil(tVTbbsMgDP0aHoO4U5679j9QSxK0LEQkXbO/HxlMLWTR1Kl7I/axfXzsGND92OrBAILGybtXc7XnqQX0BRBi+9Z4O4UXoAdA97XzpvHu0p/j96AX5PJ6c+9LhjnGMQbFEkTQRzRgApX8shwjXvtT8PobXrIY4FMEE5CmHAmEIFJZUq4glwlS6dmOlXeTnqzrU0D0ddo3pgoFq7rTTeITXePVmGFl/pEilpCInGIw7dQvFDlU4m8U0cMUg4pEFipyuJMZxQCiW7P5F46rzSjLQ0W2ewoCMpz3xCVkWUsYoXIvKH3qXqB7gqeLjx3hsjxe1yclJhm4+G4bzbTE0HJ5tqQRbCWNyLVZ/YnoqZPOhOls/9Ckw+N2QGrbdfH+3PvLgxNM8VjRwyc=);strokeColor=none;spacingTop=-3;spacingBottom=-3;spacingLeft=-3;spacingRight=-3;points=[];labelBackgroundColor=none;rounded=0;html=1;whiteSpace=wrap;fontStyle=0" vertex="1" parent="y_fMPFTzz9CIE6H5T-Y4-32">
          <mxGeometry width="11" height="10" as="geometry" />
        </mxCell>
        <mxCell id="y_fMPFTzz9CIE6H5T-Y4-35" style="vsdxID=1079;fillColor=#f2f2f2;gradientColor=none;shape=stencil(vVHLDsIgEPwajiQI6RfU+h8bu22JCGRB2/69kG1iazx58DazM/vIjjBtmiCi0CplCjecbZ8nYc5Ca+snJJsLEqYTph0C4Ujh4XvmEaqzont41gkL96naodXKrGF6YSfQtUi0OXXDVlqPfJNP6usotUhYbJIUMmQb/GGrAxpRljVycDBuc1hKM2LclX8/7H9nFfB+82Cd45T2+mcspcSRmu4F);strokeColor=none;spacingTop=-3;spacingBottom=-3;spacingLeft=-3;spacingRight=-3;points=[];labelBackgroundColor=none;rounded=0;html=1;whiteSpace=wrap;fontStyle=0" vertex="1" parent="y_fMPFTzz9CIE6H5T-Y4-27">
          <mxGeometry x="17" y="17" width="10" height="10" as="geometry" />
        </mxCell>
        <mxCell id="y_fMPFTzz9CIE6H5T-Y4-36" style="vsdxID=1080;fillColor=#E6E6E6;gradientColor=none;shape=stencil(tVTLcoMwDPwaH9HYMg/7nKb/4WkMeEoxY5wm/ftCTaaINvTS3PRYSTsry0wextYMliEfY/Cv9uJOsWXyiSG6vrXBxcli8sjkofbBNsGf+1PyBzMjZ+vNv88drqlOFFDkcxXyjyXC+Zf/nOCd61dwDmVJ0EpDvoab8DIlw6270FAkfFgKcg28SqEFVHFASqFA4LhgMnN1YxZ8NNH5fmGRcp0Jjc2miVndmYakxou1w4/w7xy5BFQbkgi5ICRRgFJUpxKUfhzJje5ktIZK38eKCjTVc6ex1KCQgCsQO2JJAVhSsQoJmmh1e0GrdSr5r0rtMcwVbLZZCqDLvP/oH0Jws56/Lm4yvq+1dl2Xjn2d3173FEo/gzx+Ag==);strokeColor=none;spacingTop=-3;spacingBottom=-3;spacingLeft=-3;spacingRight=-3;points=[];labelBackgroundColor=none;rounded=0;html=1;whiteSpace=wrap;fontStyle=0" vertex="1" parent="y_fMPFTzz9CIE6H5T-Y4-27">
          <mxGeometry x="55" y="21" width="12" height="29" as="geometry" />
        </mxCell>
        <mxCell id="y_fMPFTzz9CIE6H5T-Y4-37" style="vsdxID=1081;fillColor=none;gradientColor=none;strokeColor=none;spacingTop=-3;spacingBottom=-3;spacingLeft=-3;spacingRight=-3;points=[];labelBackgroundColor=none;rounded=0;html=1;whiteSpace=wrap;fontStyle=0" vertex="1" parent="y_fMPFTzz9CIE6H5T-Y4-27">
          <mxGeometry x="51" y="42" width="11" height="11" as="geometry" />
        </mxCell>
        <mxCell id="y_fMPFTzz9CIE6H5T-Y4-38" style="vsdxID=1082;fillColor=#ce74b6;gradientColor=none;shape=stencil(vVHLDsIgEPwajiQI6RfU+h8bu22JCGRB2/69kG1iazx58DazM/vIjjBtmiCi0CplCjecbZ8nYc5Ca+snJJsLEqYTph0C4Ujh4XvmEaqzont41gkL96naodXKrGF6YSfQtUi0OXXDVlqPfJNP6usotUhYbJIUMmQb/GGrAxpRljVycDBuc1hKM2LclX8/7H9nFfB+82Cd45T2+mcspcSRmu4F);strokeColor=none;spacingTop=-3;spacingBottom=-3;spacingLeft=-3;spacingRight=-3;points=[];labelBackgroundColor=none;rounded=0;html=1;whiteSpace=wrap;fontStyle=0" vertex="1" parent="y_fMPFTzz9CIE6H5T-Y4-37">
          <mxGeometry y="1" width="10" height="10" as="geometry" />
        </mxCell>
        <mxCell id="y_fMPFTzz9CIE6H5T-Y4-39" style="vsdxID=1083;fillColor=#a33a85;gradientColor=none;shape=stencil(rZPLbsMgEEW/hqURTxOv0+Q/UIJtVGosTF5/X1yQEopst1J2w8yFmcPVALqfejkqQNDknf1UN332PaAfgBA99MppHyJAD4DuW+tU5+xlOMfzKGflHH3Z6/zCPd5jDIrdfIugR8xg+nM8RrV0p1BypdolOashEzGVRCh7jjeQsFSv5F1PlbNeem2HTG2k61QVulWtkV2aJJamm1JjkU7zGT2oxdY1xHgFhkOECxiBM5jF//k3DfoDzaY3sFlxh3PIeA7EBeQ8A8Ko8EeQt/qDlv0pmq87FIDqXQEkmg2H0FsNWsHZNigEz81rtTFxcV/rvzc1pOKW08M3);strokeColor=none;spacingTop=-3;spacingBottom=-3;spacingLeft=-3;spacingRight=-3;points=[];labelBackgroundColor=none;rounded=0;html=1;whiteSpace=wrap;fontStyle=0" vertex="1" parent="y_fMPFTzz9CIE6H5T-Y4-37">
          <mxGeometry width="11" height="10" as="geometry" />
        </mxCell>
        <mxCell id="y_fMPFTzz9CIE6H5T-Y4-40" style="vsdxID=1084;fillColor=#f2f2f2;gradientColor=none;shape=stencil(vVHLDsIgEPwajiQI6RfU+h8bu22JCGRB2/69kG1iazx58DazM/vIjjBtmiCi0CplCjecbZ8nYc5Ca+snJJsLEqYTph0C4Ujh4XvmEaqzont41gkL96naodXKrGF6YSfQtUi0OXXDVlqPfJNP6usotUhYbJIUMmQb/GGrAxpRljVycDBuc1hKM2LclX8/7H9nFfB+82Cd45T2+mcspcSRmu4F);strokeColor=none;spacingTop=-3;spacingBottom=-3;spacingLeft=-3;spacingRight=-3;points=[];labelBackgroundColor=none;rounded=0;html=1;whiteSpace=wrap;fontStyle=0" vertex="1" parent="y_fMPFTzz9CIE6H5T-Y4-27">
          <mxGeometry x="51" y="17" width="10" height="10" as="geometry" />
        </mxCell>
        <UserObject label="" tags="Background" id="y_fMPFTzz9CIE6H5T-Y4-41">
          <mxCell style="vsdxID=1033;edgeStyle=none;startArrow=none;endArrow=none;startSize=5;endSize=5;strokeWidth=3;strokeColor=#595959;spacingTop=-3;spacingBottom=-3;spacingLeft=-3;spacingRight=-3;verticalAlign=middle;html=1;labelBackgroundColor=none;rounded=0;fontStyle=0" edge="1" parent="1">
            <mxGeometry relative="1" as="geometry">
              <mxPoint x="-1" as="offset" />
              <Array as="points" />
              <mxPoint x="2033" y="2869" as="sourcePoint" />
              <mxPoint x="2054" y="2869" as="targetPoint" />
            </mxGeometry>
          </mxCell>
        </UserObject>
        <UserObject label="" tags="Background" id="y_fMPFTzz9CIE6H5T-Y4-42">
          <mxCell style="vsdxID=1034;edgeStyle=none;startArrow=none;endArrow=none;startSize=5;endSize=5;strokeWidth=3;strokeColor=#595959;spacingTop=-3;spacingBottom=-3;spacingLeft=-3;spacingRight=-3;verticalAlign=middle;html=1;labelBackgroundColor=none;rounded=0;fontStyle=0" edge="1" parent="1">
            <mxGeometry relative="1" as="geometry">
              <mxPoint x="-1" as="offset" />
              <Array as="points" />
              <mxPoint x="2033" y="2829" as="sourcePoint" />
              <mxPoint x="2056" y="2829" as="targetPoint" />
            </mxGeometry>
          </mxCell>
        </UserObject>
        <UserObject label="" tags="Background" id="y_fMPFTzz9CIE6H5T-Y4-43">
          <mxCell style="vsdxID=1;fillColor=none;gradientColor=none;image;aspect=fixed;image=data:image/png,iVBORw0KGgoAAAANSUhEUgAAAOEAAADhCAYAAAA+s9J6AAAAAXNSR0IArs4c6QAAAARnQU1BAACxjwv8YQUAAAAJcEhZcwAAHYcAAB2HAY/l8WUAABT9SURBVHhe7Z3Pq2RXEcff3xD8C/wL3Ll148at67gaMo/JEMS3UIgLFVwIghI3WYnZ6ErBlQFdmPdmfCIJQRMclSBqJCDEQEggIsG2vvVu33Tfrnv7/jjnVJ17v4vPy8w387pP9z116vyoqnOx2+0IIT28/9HHuxd/9Y/d57/7+u5TX/vt7uLqdve577y+++pP/rL75Rvv7v7z8f/kn9m/OxZTJITsLn78+J3dxYObO778eHfxld/cgT8/fHSnP/d4982fvbXIGE2RkC0D7wfPd3H/+tj4LPD/G2OE0XZfawymSMhW+fmr/1KDUiyj6wPGKEb7he/9fgcj7r7uEKZIyBZ59qUnu4tnRni/IWC88vt/f/cjeUn7fbqYIiFb4rW/vq8bLrrOswxrKs0U9Y23P5CXt9/zEFMkZCtgl3Ox97PA613ejPKIpkjI2vnTOx/eHTlgU8UyohTAEMXDnts5NUVC1gzO/bJ4PwuZ4mKt2W3DIaZIyBr594f/1YN2TBNNg8nFvevBaakpErI22oP3qUcPKZD3HPKGpkjIWsCZ3Rd/8Idy008LvK8YYt/a8EQgZC08+vN7rQGYxlESmQKjPd02ghOBkDWQ7ehhLg8f7b7/i79J007beiIQUjM4IM9+9DCHgXXhiUBIrcDTYCcyjPc7RNqEuNJum8GJQEhtYPv/M996NZ73O0Q84dMvvinNPW3/iUBITejRA879Inq/Q8QIv/HTt6TJp5/hRCCkBnDwrkcPY3L+IiADBTLxu58DnAiEREdz/pDxEOHoYQwYJKS9PCck1YNOjHVVqKOHMchaFfGq3c+zxxQJiYbm/KFD1+L99kh7P/vt1+Qj2J8LmCIhkcCGRnXeD4gB4sySqUykWpDz9+mv/y720UMf0mZ4wHMGCEyREG+K5vylBO29d61lELufqQ9TJMQLt5y/FGC9KkbYF6jdhykS4oEePWDqWdvmC7zfzHKHwBQJKUm1Rw8A7RWvPbfwLzBFQkqhOX/ozLV5PyBeGzGrU2qMWpgiISXQnL+oWQ9DoL0TN1+GMEVCchI2528MCJe7ut0heKD7ueZiioTkQnP+al37Sbvv//CPo87+pmCKhKSmipy/PrBeFQ/YlwWxFFMkJCV68F5Dzp+FtBvXpOH8svu5UmGKhKQAHVfv+avx4L2Zfg5lP6TCFAlZSnU5f4fIlBkbR4hd7X6uHJgiIXPBpgU2L2refMHRSfdz5cQUCZlD8nv+SgKPLUyN+0yBKRIyFRxcV+v97l9rvZo5cZ8pMEVCxoKjh2pz/mCAC+M+U2CKhIzhR6/8s07vB2TQQNLt0rjPFJgiIUNg2oa0nWqPHmT62XcvhAemSEgfazh6QOxq93N5YoqEdGlz/moptnsI2ivT5r4K2N6YIiGHtEcPNXo/x6OHsZgiIXuqzvkTrw3vnTrrITWmSEjV5Qbh/aTdWL92P1dETJFsm2pz/sDljVZry5n1kBpTJNukLTdY68G7DBwlsh5SY4pke7TlBmv0ftJuJAyXynpIjSmS7bCGo4dUBZe8MEWyDV558t5dR67x6CFDwSUvTJGsHz16qHHzpfF+yFnsfqZaMcWawfQq+rmQJ9UXXJJ25yq45IUp1gI6FDYUNJMbER04VMbo3hwuQ8eUq/t7W0WzHmo8eAeXN7PveoiOKUYHhtcWEMKIjhGy27Hwd+hilLWdG6WGBZdiY4pRwTREKzejM00ZzZtpTK1b2Etojx5q3HyRdqe46yE6phgNTEFQfmDRRgJ+7+Gj1T/QPcx6qAdTjASmUur9UozkeLjyOmufmrZ3PdRYcKlpc+Ssh9SYYhTgAbUzpRzJ8VpXt6s1xKqvmZZ257jrITqmGAXUAMmylpEHDuNe28N+9qUnd9NP6zNHBs9YPGAtWQ+pMcUIaCQ/NhSsh5YCefBI1VmLIer6L+f3lQvxfp7lBiNgit5gqqhTKuuhpUQMEccX3fevDZ2C1uYBm+mnd7nBCJiiN3r4nmMaaiHTIJyhddtQC9jtLTJgpaQ5elj7BtlYTNET9YKlp1XyfpjOddtSA7oOLDVgLaXxfpHKDUbAFD3B9MRlbSPviQ7dbU909LuqYSdU2onNsGjlBiNgip4UnYp2ubypKjdNq6BFXws23q/GAa4UpuiJFhfyHNmlU9cyXWpD0qzPEQEMpgKD6IcxRU/04XlPr2TkriFg2G3qfo7G+9VQbjACpujJU887e8I90omiHx6H9IR4dtKmrR68z8EUPdFD5yi7ffeuQyeQYpMj1JpQ1tRbTxubgyl6Em6KJZ08ch0T/a68Zw7N9HPNOX85MUVPEL4UomPtaTpY1K1193NCeVbYTNtKilgOTNGbF17OHDc6lWadEzEpGG3CIGG2Oyf4TmS6joJR3TaRaZhiBLQSdJS1IUCnC5oUXHwdjfeS72JLOX85McUIYGtbd0qjGaL8N9rGQxvq17QvK/I+3HxJiylGoTXEEp1rLNKWiLmIelyRc1qKZ8DNlyyYYiR0lEc5w0iGKN4ZWQDRDBEhd1nW0vKaGAy3WCirBKYYDTVEGGEwQ4yYAqUFsVJN4Rvvx82XvJhiRDRvDkWAIhmieAh0+m5bvUlSlweGLK/BuM/8mGJUdDu+1AbEWKQ90TIEFs8cLm/Uy2+55ERJTDEybahWJEOUThttyqYzh6kDFv6tTD9RLr/7eiQfphidNo8ukiEGTIHSAQs7pmO+JzFYRr74YIo1gMBqvdzE6lBeBNzC1wFryBAb75fLk9Ooz2OKtaDB3uhgVufyQtoTrYKYDljW9wQDfO5xtsgXlLG/+NKvGVlzBlOsCb3uK5ohBkyBOhmwGgPMEfmCDTStkLBfk8p/ecbYjynWRri6m80UL5oH0O9pb4hiGDkSb7VoM94D38Hh9xE07jYCplgjOvWJ5BHR8S7jeQCNqsGAJUaY8ggCBqbXFsD79X0fAmNOTzHFWtHcur5O4AE6nrQnmgfQ70kGrFRhd+1UF5/X+h72yP9f4x0gSzHFmgl3J0NQD4A121IvDU+KK6wnzUBkHYq42+5rbRlTrB3tGAhxszqBBzDEq9tQESjwRkuOU9oiU3PiVOV31nAHSCpMcQ1ku1ZtLtIWeJ9IUzF456kDA9qvBZrHTD+HEAOu9eqB1JjiGkBnwbQnmiHWPBVDMLcaXqrvVAyRlblXbIQAhpgkoyAl0oFrnIrtN3OSf5eXN5u5m74PU1wTmlEQLSlYPADWrd22RkVzFHNudolxbzlj3xTXBo4I1AiDGSLWVt22RiN72Yw98h7Rwv1KYYprRA0Ro3kkQ6xgKqY7zaW+MzHEyBXPc2GKa0VTe6TjhzJE6XiRb4HSza2S35d8H1vL5jfFNYN4zogpUFETaYvXNIXBy0AZteJ5Dkxx7fSm9ngiA0PEm4z0uyodHN8Y4lYCvk1xC2i8Y0CPGHEq5nLeCkMUthDwbYpb4Si1JwLoeNKeaFMxt2Meeb8tBHyb4pbQ/LdouYgP4qVA6e4yvGFpQ5T3hCdesyGa4tbQXETsmlqdwAN09IBJsG7HPGKIiAXutmctmOIWCZmLKP+NtiY6WzgqFzIo1RRlNAVT3CrZw7OmIh09WuYF0EBuj00tMcQ1Zl6Y4pYJl4vYrIm67fSmWDhbFxkk13Y3hiluHZct+SGkLREvn9FKdx4eMWCh5SWY4tbB9E9L9pVe9wwhHiDi5TNuu8vihdeSeWGK5K5+SsQUqIiZF267y2KIa8i8MEVyhx5SY30YzBAjZqNryQuPTS0xxIjhflMwRfIJODTXzhXJEKXjoX5ot63e6O6yx6aWfB84Oum2pxZMkRwz6XajUkh7Iq6JXAps4bnIQFlr5oUpklM0BQqGaHUCL6Q90dZE2NRyC/iuNPPCFImNno0FzLyIlo2OTS2XAlt4P6G2zAtTJP20Jd+tTuABOp60J9qaSDe1GqMw250LvN/VbVUB36ZIhmlvHrI6gQfoeDIVC5l54bG7HDTKqA9TJOfR242iGaJ0+JCZFzhDdDDEWuq7miIZB2IYXc7G+mimYpHuvABumRfybCJGGXUxRTIet0PqPqSjM/PiAHk20TMvTJFMw+2Quo+gayLPzIvId16YIpkO1h/Fz8aGkLZEzEbXzAsPQ7wfM8oImCKZTpt5EckQxTtHXBO98DIzLw4xRTIPt0PqIWQqFjHzQje1PDIvZF0aLcrIFMl83A6ph5DOHvHOC2Ze3GGKZBluVcmGCJqN7lZORAwR8cDd9nhgimQ5IVOgZCoW8c4Ll00tPBcZmCJkXpgiSYPbIfUQwaZie1w2tfBcZKD0jjIyRZKOqJfPRJmK7cHu8lPPO9T1wfuJ8XtmXpgiSUu4y2caDxDyzgu0zcEQMQB4RRmZIklPyMtnxBBDZl54rKXFG3pFGZkiyUPUy2eiZV64lRMRQ/SIMjJFkg+3Q+o+pKNHjDN1Kyfy8FHxQsumSPIS7vIZGRQi1u9029SSZ1My88IUSX5CZV6IN8QRQbeNEXAL+BZDLHXnhSmSMriUB+xDOnq0teEez1L7JcL9TJGUIVTmhYz8kStZe5baz515YYqkHGHuvBAjjBhbeshaA75NkZQlROaFrE+jGyHQtbSTIeaq72qKpDxYj7nmIkrHjrhDaqEB36U3tfBcxBBz1Hc1ReIDPKKbIQbJKBiL250Xsi5NHWVkisQPl6kp3ks6dLctkXHb1MJ3JV445U6yKRJfihuidKqImffncL3zQowfz6nbpjmYIvFHA5mx7sndwfD6stZJ1aFKowMWvKGDIWIASFFo2RRJDIoYoqwFa9mQ6UO/J+yYljZEMX4Y4tIUKFMkcchaJkMMvIYy8WPQzAsc5jsY4tLMC1MkscjSwcQAIxYHXoJmXngkTy8czEyRpAXrlqVTlqT1asSzrsUDdvEstT8388IUSTo0HUceUIprutqRfq4h4vekg9a4EzoFzbzw8IgyW5mTeWGKZDnwfJo3uPdeC0bKQ2bn2DU7iNEKPOXCLfNC3nNq+J8pkmWox4LhYWfz8AGJIaa4HUgNcexI33g/FNldOiWuDbcqBvJ9T6nvaopkPvrg997PekDSKVJMB3Xtc26kRxvk/SIW/C2FWxUD6QNjMy9MkUwHGycavTHmgYvxpMhR0ylX3/uJjrCulOFVtYJlgJchjpn+myKZhiacTt0wkX+f4pD8pGBuM/2MehefFyjepOviw2eQm+ZZnMu8MEUyDngZVCqbPcrKA1qao6YDwL5zSTvgjWvKhiiJZ6n9ocwLUyTn0angkuMCgN+V11iSo6btwAaQGHSpwkS1go0pt4BvoS8+90Qgwyz2fl3wgM6MlEPoNEsMOVfW99qIGPB99BcyjJayx45k6geI1xNvNjWTQcPZ5Pe4+TINDfjuHh+VQIwfA3j3qOioccQGxqEeJ+eZEwzx6nZ0agz+3dojX3KigfF4nqU9ohhiN2b3qGHkFA2BwtSzxIJeOgQ2D8YcqqcusbBFksbjTkH60+EAetIwcseR9yv5kMTYS9+FsGU0ugmGaD2LnMg6fr+MMBu2dTQsDGuGEt7PIsHRBRmPRh9hp9t6FrmQ/rX3hmajtgrWWVrX0mOKcogY/1pTjaJS/M4L9K+rW3lrGmGLej94Pi/vd4g8IETCdNtI8lI880KMXndqrcZsCWyCaHl1b+93CD2hG0UzLx7caGyp2ZCtoF8A7oHwODMagmtCV4plXsh76AzMasQW0BFvadhZDuTBwDN320vKonsDuQ1xq0aIKJPRKUclwWAg65GSN8SSYfSIKucsSaa9m5uOasZBpLXfHmwGyaCQ8/otMo+sd15IX9RYVuuN1waiSzSNJZr3A+L9UHoiRSVnkgcN2E9tiOIIMCPD65tvuiaQ3BrS+6E90q4tl56oBQyQyVOgtnBYH9r7SZswujL7oR5aQ0zlEdcetpYt5Wgpjfdj6Yk6gSEmyc6XQfgwAfvkjWoGi1xdSJc6bJ2CfPEYSVl6om4Q3LEorU0MuBsNdfQGNYOiSTr1DOr9WHpiXehsC3sNOMIY0+fwb6R/wgC7ydtHL1wjmFfrHealU47G0Hi/JTVkSFxgTLrxh2cNg4QTwFQVoC/iv9CapVFfZe4ToSZa77d0jp4aPAB6v02BjUDsdOOZI+ACETf4MzzmKksetilHETdfmlFwTNFXQoApRkYTMAN7P8R9jilPQcgeU4wIOnZo7ydrUoadkTmYYjQ00hy7UEG9HwYHhp2RuZhiFOD99DIP7DxF9H4yLab3I0sxxQhoigcML6L3kykxvR9JhSl6c3TDrWUIXtD7kQyYohdajDViuYnG+yFcqRvtQMhSTNGDsAm3aI94vxR3CRJiYYolgffTiy5x9mcZgRcwvssbDYljyhHJiSmWAmE9kb1fiiutCTmHKeYGcXaaIBnN+wFpExNuSUlMMSdJbrjNAdojXpnej5TGFHMAz8JyE4ScYoqpaRMgg3q/vjwvQkpgiqmAZ9FyE0G9HzwzL9sk3phiCl54WdZ+gb3f4U2phHhiikuA99NyExG9HyJxrm5ZboKEwhTn0t7vHtH73bveISaVCbckGqY4laO1XzQDbLwfy02QqJjiFKJ7P5abINExxTEgmyBsqUF6P1IRpngOLbYUuNwE136kJkyxD3g/LQEesdgSBgVpE70fqQ1TtGCpQULyYIqH1OD9XnlC70fqxRT3aJn5wGs/ej+yBkwRHRtXOIcttCsDA2qRdttNSI2cCDh4T3ojaUpYapCskKO/oHNrtbOI3k+mnyw1SNbI0V809CySB8RgIN4PU2OWGiRrpf2DbsLMvQI4BxgMHrDUIFk/n/wBXifKNFQGAxbaJVtBf+itRxG8IAYBaQeCwg8bScia0R9a/9N7LSjGhzUpiy2RraE/UGnMbSqK932GpQbJdrn74XUs8YClBgnR6Bg1wJJG2Hg/lhokxMMIxfshIoelBgm5Q39omFpuI2y8H0sNEnKM/tAyFTmNsPF+b7z9gbyd3RBCtor+0EtakLJkGdASYNj36P0IGUJ/wENhqmga0lxw7shCu4Scpf1DsrNCvMb9693TL77JhFtCRtD+AbuV6g2XGCJ+l0HXhEzi6C+YOurasKndYhqaRWN82HzhwTsh0zgRMIXERso+lUj/axkkNBhrs5bELUzd1yKEnMcUAYwR2RUwSE32RWhbY4DweCgzgV1VbrwQsoTdxf8B6se+f3yHxQ0AAAAASUVORK5CYII=;strokeColor=none;points=[];labelBackgroundColor=none;rounded=0;html=1;whiteSpace=wrap;fontStyle=0" vertex="1" parent="1">
            <mxGeometry x="1652" y="2655" width="54" height="54" as="geometry" />
          </mxCell>
        </UserObject>
        <UserObject label="" tags="Background" id="y_fMPFTzz9CIE6H5T-Y4-44">
          <mxCell style="vsdxID=1354;fillColor=none;gradientColor=none;points=[];labelBackgroundColor=none;rounded=0;strokeColor=none;html=1;whiteSpace=wrap;fontStyle=0" vertex="1" parent="1">
            <mxGeometry x="1652" y="2889" width="56" height="50" as="geometry" />
          </mxCell>
        </UserObject>
        <mxCell id="y_fMPFTzz9CIE6H5T-Y4-45" style="vsdxID=1355;fillColor=#76bc2d;gradientColor=none;shape=stencil(xZTNcoQgDMefhqMMH4Jy3m7fg+miMrXiIO1u375YaJVS9tCDvUHyJ/GXxAB6WgY5K0DQ4qx5Vld9cQOgD4AQPQ3KaudPgJ4BPXXGqt6a1+kS7rNclevpxbytEW7hHReQNOsrgt6DBX3eHoN41NNOTBFsaFks7ZP32CjGGDIexDaqMYFtG0xRRHxElkTksCZRUsmbXiprnHTaTPuEaJS2V5VPWHWj7BPXclVqzsy/8vgvTHFqCjm5ixTdeyTBEqQsKPNI/CikvKCCQtbeb1PeJZIg5X3HCB1FlE/oV/ISTy1yIJwANT5mqUoHIIkW1inSNiN/H7w86jbOB0DlNf3+lYuD1+RMCVJpO/3L2CVif9hWaqfHMWzkvf/nCvamsL7p+QM=);strokeColor=none;spacingTop=-3;spacingBottom=-3;spacingLeft=-3;spacingRight=-3;points=[];labelBackgroundColor=none;rounded=0;html=1;whiteSpace=wrap;fontStyle=0" vertex="1" parent="y_fMPFTzz9CIE6H5T-Y4-44">
          <mxGeometry width="56" height="50" as="geometry" />
        </mxCell>
        <mxCell id="y_fMPFTzz9CIE6H5T-Y4-46" style="vsdxID=1356;fillColor=#FFFFFF;gradientColor=none;fillOpacity=90;strokeOpacity=90;shape=stencil(vVfddtowDH6aXKJjS/7Ldde9R04bIGeMcAJdu7efWOwEOcNtN9hdkCV/0qc/U9HDcdsc2grV8TT039rX7vm0rehLhdjtt+3QnfiroseKHtb90G6G/mX/PP4+NGfN89f3/sf5hrfRzioIdLZC9XOUaA0u/JZ8HQ2a4YlPh2igDWg9GgzRwkGIkqjjLCgjLjVQ+6iyat6642roT82p6/fjsRrPds2waVeMt1rvmk3EG4+Or217WIiveYhLD53wsBT2p11UH3Bx1+0/x7pMEzlwKAxqAm3+jYRlmuZLb0WCuk5CCf6vYyoRdavaK8T0gTxl/acn76KBV2ALJKCdui2RoBGMZIGVtLjUEdB/q24loS34QjzGAXoZDyKQFfGYGmwtbg1qGkP3qNSnl2HMko5JCRBSmvTSA4ycqBR6FHiENPYoV4kCx8HSdXqI2auzdHvAIOhhV5wctxacvR87WUVy/dncR4XgZE1yDk2QXuq7Tps8h+SnJZRySPXEbsohcfvJJJ57OvFNC6Uk4Uz7wujinKGkKADpdwjiNra3LfLC2uQdTVkj8lLyXvjIBS33FukpsPsPFp6lIWPIpwXw5+FiwGTDEjWYxXCRs0U7qOubxlSsS6xBp2rSSw9iFc5jP9UlRzKNSVoopbok8FhCvzCJEhPAWwmOWUvw1pr2boLmyqgltjVpL13DZqQM3PKjACW45w1KGb4HjRL/UmserT6U8C+qWU/LKifecS4y5ucVPYevwToJv1jk2Rvw/c3PH/O7fd3tduOz//I8f+ezaPyPQI+/AA==);strokeColor=none;spacingTop=-3;spacingBottom=-3;spacingLeft=-3;spacingRight=-3;points=[];labelBackgroundColor=none;rounded=0;html=1;whiteSpace=wrap;fontStyle=0" vertex="1" parent="y_fMPFTzz9CIE6H5T-Y4-44">
          <mxGeometry x="18" y="6" width="18" height="38" as="geometry" />
        </mxCell>
        <UserObject label="" tags="Background" id="y_fMPFTzz9CIE6H5T-Y4-47">
          <mxCell style="vsdxID=1357;fillColor=none;gradientColor=none;points=[];labelBackgroundColor=none;rounded=0;strokeColor=none;html=1;whiteSpace=wrap;fontStyle=0" vertex="1" parent="1">
            <mxGeometry x="1648" y="2810" width="63" height="50" as="geometry" />
          </mxCell>
        </UserObject>
        <mxCell id="y_fMPFTzz9CIE6H5T-Y4-48" style="vsdxID=1358;fillColor=#0078d4;gradientColor=none;shape=stencil(vVTLcsIwDPyaHKOxpcSPM4X/8IABT9OEcUKBv29SmxS7zHAiN1taWevVo6BVfzQnWyDrB9992ovbDceCPgpE1x6td8N4Kmhd0GrfeXvw3bndhfvJTMjp9NV9Ty9cQxxnbIpBdgt3oUD+GjYBbfx2dPqIRoSaAt7HAOKgeDBFkGJQJ2+SAq4jpDRX15e+G8zgujb4I4PG+IMtx4TlvjGHxNVfrD39Mz+nqIB4RlGDFgnFmgNVCUe2GD8NTKb8Kg6MEn5IUIuEHwoQy2koQGGmoQSVapj1DQHni/GTgDk/BVWm4dh1aY3nXn8Hw+3Zh7ni9zrH3DxPjnMjqMj4hjmG4q8YiPssUYqJaRvXPkyzFID86Z+f6liBrlMZBWiVqCjlrGuEaA1SLlZpnJPNlca5rq922FsIpoq/2p/j4W/17l3ThM396M9X9WgKa57WPw==);strokeColor=none;spacingTop=-3;spacingBottom=-3;spacingLeft=-3;spacingRight=-3;points=[];labelBackgroundColor=none;rounded=0;html=1;whiteSpace=wrap;fontStyle=0" vertex="1" parent="y_fMPFTzz9CIE6H5T-Y4-47">
          <mxGeometry width="63" height="44" as="geometry" />
        </mxCell>
        <mxCell id="y_fMPFTzz9CIE6H5T-Y4-49" style="vsdxID=1359;fillColor=#50e6ff;gradientColor=none;shape=stencil(vVPbcoMgEP0aHmWAVdDnNPkPJkFlasVB0ti/r85iC7bpY9/2cpazy54lcJp7PRki2By8ezUPews9gRcihB17421YLQJnAqfWedN5dx9v6E96Q27Wm3vfXliwrmJbiWAf6KJ3QeT17hHKMVkzykWE8xTPFoFuU9NqR8QQSCpVRAGGONtJY6CWVJUps/bXNe1jj4qqBgt8bJMLqiA+GpkFlZCN8sWyFHqxc+Fd0MG6MWt80L4zxUpXtIPustT8MGZKwjxtcLBj8olqb//I/Wyc8sc4ssrGybdSKyr+a5YDs9wX+kQTnJZ1Lol04VEDvKHNvhyRCwcOMoRfdJg3+JdiV+Nb6K0dBryTNH88jDWERwXnTw==);strokeColor=none;spacingTop=-3;spacingBottom=-3;spacingLeft=-3;spacingRight=-3;points=[];labelBackgroundColor=none;rounded=0;html=1;whiteSpace=wrap;fontStyle=0" vertex="1" parent="y_fMPFTzz9CIE6H5T-Y4-47">
          <mxGeometry x="17" y="22" width="45" height="27" as="geometry" />
        </mxCell>
        <mxCell id="y_fMPFTzz9CIE6H5T-Y4-50" style="vsdxID=1360;fillColor=#FFFFFF;gradientColor=none;shape=stencil(xVTbcoMgEP0aHt1BFgM8p+l/MAkqUysOmsb8fbSgkXTSmT5k+raXs5zD7gLBfV/rzhBG+8G7D3Oxp6Em+EYYs21tvB0mi+CB4L503lTendtT8Ds9I2fr033NJ4yhjoFUcxGj1xDIKf323wNa++OU8ytaRLSPcA4KQyRCKEhMDlQSeBEhmR5tn3k36MG6NhaEXKN9ZbKJLisbXSWp/mJMtwnnvwrER4GSpQJTdRxE/jp1x7MP3c5jEnaRPgZQAOWRn8U7cKAyolhCNWJwCwp0aTJuEU9YRQFKpLw05dwMaeHcKsN0N1bWe/eeTYP/mEa6LkoBY/+5L1KkCou1+YtCAfkuUbi24RX6Gtv+4XlOxv1ll7ZpwsewzT/+BFMo/CJ4uAE=);strokeColor=none;spacingTop=-3;spacingBottom=-3;spacingLeft=-3;spacingRight=-3;points=[];labelBackgroundColor=none;rounded=0;html=1;whiteSpace=wrap;fontStyle=0" vertex="1" parent="y_fMPFTzz9CIE6H5T-Y4-47">
          <mxGeometry x="20" y="24" width="40" height="22" as="geometry" />
        </mxCell>
        <mxCell id="y_fMPFTzz9CIE6H5T-Y4-51" style="vsdxID=1361;fillColor=#9cebff;gradientColor=none;shape=stencil(rVLREoIgEPwaHmVQVPS57D+YRGUicQ5K+/swtKLG6aW3u929O5Y7RHem44NACTEW9EmMsrYdonuUJLLvBEjrIkQrRHeNBtGCvvS1zwc+K+forK9zh8nXxYTMNQm5+TylmOUP5ODlHI6OhVWes5UnsJTELMaFhxZV2HLJpohP0kSgLbdS9wGnOLQicqOiRvE2oMwoxPAFL49TshdbY1mJ82zbSZlhRkMjZYEJDYykOc6KoOvzv/5kJ96283M1LnittZFK+at45z/PwEH+hGh1Bw==);strokeColor=none;spacingTop=-3;spacingBottom=-3;spacingLeft=-3;spacingRight=-3;points=[];labelBackgroundColor=none;rounded=0;html=1;whiteSpace=wrap;fontStyle=0" vertex="1" parent="y_fMPFTzz9CIE6H5T-Y4-47">
          <mxGeometry x="41" y="28" width="9" height="9" as="geometry" />
        </mxCell>
        <mxCell id="y_fMPFTzz9CIE6H5T-Y4-52" style="vsdxID=1362;fillColor=#50e6ff;gradientColor=none;shape=stencil(rVLLDoMgEPwajhIePuq5tf9BKiopFbPSav++WDQVE9tLb8vM7C4Dg/ixb0QnESO9BXOVgyptg/gJMabaRoKyrkK8QPxYGZA1mHtb+nMnJuVU3cxjmjD6PjJ1MPL0p5jjNH4jZy/Wql2JE0fzoIESspYLuDgOZnlOce7VMMvzGHPmoTEcsAzMcnxYFJEYVR+BscIq0wb31QJqGbl1UaVFHVD9IGW3gum+n+3yL15omuEsDt3QjGGaBHb2nvNfZsi+mR8/6YpPBiqltY/Qmt9mxkE+b7x4AQ==);strokeColor=none;spacingTop=-3;spacingBottom=-3;spacingLeft=-3;spacingRight=-3;points=[];labelBackgroundColor=none;rounded=0;html=1;whiteSpace=wrap;fontStyle=0" vertex="1" parent="y_fMPFTzz9CIE6H5T-Y4-47">
          <mxGeometry x="29" y="28" width="9" height="9" as="geometry" />
        </mxCell>
        <mxCell id="y_fMPFTzz9CIE6H5T-Y4-53" style="vsdxID=1363;fillColor=#9cebff;gradientColor=none;shape=stencil(rVLLEoIwDPyaHumkjYicffxHRwt0rJQJVfHvLZZR6uh48ZZkN9nsJAzXfaM6zST0ntxRX83BNww3TErTNpqMDxHDLcN15UjX5M7tIeadGpljdHKXccIQ+2DskHCLWY58gY/KLpIV7QNKE1mA5BBxoKmlXHCxiqWJJYHLIhkrYJIZMjWYPiPnlTeuTVawimqdBcGssqpOoP6qdTcri/mK1rQzP0+pN+nPflYFxzL1IwrJyyIxlC95jsnU/9qB73Z+nCcEr8NWxtr4F3P8/RFCKT4Rbu8=);strokeColor=none;spacingTop=-3;spacingBottom=-3;spacingLeft=-3;spacingRight=-3;points=[];labelBackgroundColor=none;rounded=0;html=1;whiteSpace=wrap;fontStyle=0" vertex="1" parent="y_fMPFTzz9CIE6H5T-Y4-47">
          <mxGeometry x="47" y="33" width="9" height="10" as="geometry" />
        </mxCell>
        <mxCell id="y_fMPFTzz9CIE6H5T-Y4-54" style="vsdxID=1364;fillColor=#32bedd;gradientColor=none;shape=stencil(rVLLDsIgEPwajiUUrJWz1v8gSlsilmZBrX8vBKtF23gx4bCP2VkGBrGtbUUvESXWgTnJmzq6FrEdolR1rQTlfIRYhdi2NiAbMJfuGPNeBGSIzuYaGIY4lxMSZii5x7xgOKT+7CNcq24CXzG85skAmYIFHHwHRu7NCpd5RMMTnpcEF7E0TAlGutd9hkwMymZgnHDKdAlWC2hk5pdltRZN0rI3Kfuv8qyWko83+dg9L4ZQzHkqhheYlImY5ef8l6B8WdDPv/TB2we10jraaNr/9I0vRc+x6gE=);strokeColor=none;spacingTop=-3;spacingBottom=-3;spacingLeft=-3;spacingRight=-3;points=[];labelBackgroundColor=none;rounded=0;html=1;whiteSpace=wrap;fontStyle=0" vertex="1" parent="y_fMPFTzz9CIE6H5T-Y4-47">
          <mxGeometry x="23" y="33" width="9" height="10" as="geometry" />
        </mxCell>
        <mxCell id="y_fMPFTzz9CIE6H5T-Y4-55" style="vsdxID=1365;fillColor=#32bedd;gradientColor=none;shape=stencil(vVLRDoIwDPyaPbLAijCeFf9j0QGLk5EyFf/e4SAyjfpg4lt7d23X7gis+0Z0krC4t2gO8qL2tiGwIYyptpGorIsIlATWlUFZozm1e593YlSO0dGcxw6Dr0vieKxh8XXOKRR3ZOvlAneOxUle0BS8HucCThPuoUnDc8p50HQaMURiUH2ExgqrTBtwWmAtIzcsqrSoA6q/SNm9wNPztGoX24S7ZDldwXtxRnN42v1D6yKlWRLIgdE0/+1U76//h2N9/XoXPGxTKa2965b8s80c5C0K5Q0=);strokeColor=none;spacingTop=-3;spacingBottom=-3;spacingLeft=-3;spacingRight=-3;points=[];labelBackgroundColor=none;rounded=0;html=1;whiteSpace=wrap;fontStyle=0" vertex="1" parent="y_fMPFTzz9CIE6H5T-Y4-47">
          <mxGeometry x="41" y="37" width="12" height="6" as="geometry" />
        </mxCell>
        <mxCell id="y_fMPFTzz9CIE6H5T-Y4-56" style="vsdxID=1366;fillColor=#767676;gradientColor=none;shape=stencil(vVHLDsIgEPwajiQI6RfU+h8bu22JCGRB2/69kG1iazx58DazM/vIjjBtmiCi0CplCjecbZ8nYc5Ca+snJJsLEqYTph0C4Ujh4XvmEaqzont41gkL96naodXKrGF6YSfQtUi0OXXDVlqPfJNP6usotUhYbJIUMmQb/GGrAxpRljVycDBuc1hKM2LclX8/7H9nFfB+82Cd45T2+mcspcSRmu4F);strokeColor=none;spacingTop=-3;spacingBottom=-3;spacingLeft=-3;spacingRight=-3;points=[];labelBackgroundColor=none;rounded=0;html=1;whiteSpace=wrap;fontStyle=0" vertex="1" parent="y_fMPFTzz9CIE6H5T-Y4-47">
          <mxGeometry x="37" y="39" width="6" height="6" as="geometry" />
        </mxCell>
        <UserObject label="&lt;div style=&quot;font-size: 1px&quot;&gt;&lt;p style=&quot;text-align:left;margin-left:20;margin-right:0;margin-top:8px;margin-bottom:0px;text-indent:0;vertical-align:middle;direction:ltr;&quot;&gt;&lt;font style=&quot;font-size:25.4px;font-family:Segoe UI Semibold;color:#595959;direction:ltr;letter-spacing:0px;line-height:120%;opacity:1&quot;&gt;Azure Cost Management&lt;br&gt;&lt;/font&gt;&lt;/p&gt;&lt;/div&gt;" tags="Background" id="y_fMPFTzz9CIE6H5T-Y4-57">
          <mxCell style="verticalAlign=middle;align=left;overflow=width;vsdxID=1368;fillColor=none;gradientColor=none;shape=stencil(nZBLDoAgDERP0z3SIyjew0SURgSD+Lu9kMZoXLhwN9O+tukAlrNpJg1SzDH4QW/URgNYgZTkjA4UkwJUgGXng+6DX1zLfmoymdXo17xh5zmRJ6Q42BWCfc2oJfdAr+Yv+AP9Cb7OJ3H/2JG1HNGz/84klThPVCc=);strokeColor=none;spacingTop=-3;spacingBottom=-3;spacingLeft=-3;spacingRight=-3;points=[];labelBackgroundColor=none;rounded=0;html=1;whiteSpace=wrap;fontStyle=0" vertex="1" parent="1">
            <mxGeometry x="1713" y="2883" width="318" height="60" as="geometry" />
          </mxCell>
        </UserObject>
        <UserObject label="" tags="Background" id="y_fMPFTzz9CIE6H5T-Y4-60">
          <mxCell style="vsdxID=1421;fillColor=none;gradientColor=none;strokeColor=none;spacingTop=-3;spacingBottom=-3;spacingLeft=-3;spacingRight=-3;points=[];labelBackgroundColor=none;rounded=0;html=1;whiteSpace=wrap;fontStyle=0" vertex="1" parent="1">
            <mxGeometry x="1687" y="3057" width="65" height="65" as="geometry" />
          </mxCell>
        </UserObject>
        <mxCell id="y_fMPFTzz9CIE6H5T-Y4-61" style="vsdxID=1422;fillColor=#5e9624;gradientColor=none;shape=stencil(vVPLcoMwDPwaH9HIFg9zTpP/8CQGPKWYMU5D/75Qm2lM0vbWm7Raa7UjmdFh6tSomcDJO/uqb+biO0YvTAgzdNoZv0SMjowOjXW6dfY6XEI+qpW5Rm/2fe0wh3c1ByzXVwI/AsIRv/JToCt3Xmou0iVURWC7jZ5DzgM0pw22hrIASZGRqdlMmbNeeWOHUI/sXrlWZ4tc1vSqTUrTTevxAY4D9mbQv4gTVPfs89UF+zz6LyHf/EeIKqijyVnELghUR5ZIRpsppAUCisigJ1PudXkN5U4XU00CShWJQ5GKYiq4epU/764GzB92J2WyOwlI7Nk1/MPq/jzFJfg+48b0ffgF9/X92S9Q+DJ0/AQ=);strokeColor=none;strokeWidth=3;spacingTop=-3;spacingBottom=-3;spacingLeft=-3;spacingRight=-3;points=[];labelBackgroundColor=none;rounded=0;html=1;whiteSpace=wrap;fontStyle=0" vertex="1" parent="y_fMPFTzz9CIE6H5T-Y4-60">
          <mxGeometry y="28" width="56" height="34" as="geometry" />
        </mxCell>
        <mxCell id="y_fMPFTzz9CIE6H5T-Y4-62" style="vsdxID=1423;fillColor=#FFFFFF;gradientColor=none;shape=stencil(vVJdE4IgEPw1PMrwkZrPZf+DSVQmEuektH8fBpU4U731dre7B7ewiO+GVvQSMTJYMCc5qsq2iO8RY6prJSjrKsRLxHe1AdmAuXSV73sxK+fqbK7zCZOfSynm+TzFyM0j1CEP4OD1Ao6OhKAvUkyDHsJATvGWeiiISHRg6KZETGpIwFhhlekiTgtoZOJuSmotmogaRin7BUyXu2nVLbxsCpzFVgj5rH6SrzVx/s13hjO+8s1wwSLfXx7zD/Z/f6Ur3jmoldY+Rkt+nRsH+czx8g4=);strokeColor=none;strokeWidth=3;spacingTop=-3;spacingBottom=-3;spacingLeft=-3;spacingRight=-3;points=[];labelBackgroundColor=none;rounded=0;html=1;whiteSpace=wrap;fontStyle=0" vertex="1" parent="y_fMPFTzz9CIE6H5T-Y4-60">
          <mxGeometry x="20" y="29" width="16" height="22" as="geometry" />
        </mxCell>
        <mxCell id="y_fMPFTzz9CIE6H5T-Y4-63" style="vsdxID=1424;fillColor=#5e9624;gradientColor=none;shape=stencil(vVHLDsIgEPwajiQI6RfU+h8bu22JCGRB2/69kG1iazx58DazM/vIjjBtmiCi0CplCjecbZ8nYc5Ca+snJJsLEqYTph0C4Ujh4XvmEaqzont41gkL96naodXKrGF6YSfQtUi0OXXDVlqPfJNP6usotUhYbJIUMmQb/GGrAxpRljVycDBuc1hKM2LclX8/7H9nFfB+82Cd45T2+mcspcSRmu4F);strokeColor=none;strokeWidth=3;spacingTop=-3;spacingBottom=-3;spacingLeft=-3;spacingRight=-3;points=[];labelBackgroundColor=none;rounded=0;html=1;whiteSpace=wrap;fontStyle=0" vertex="1" parent="y_fMPFTzz9CIE6H5T-Y4-60">
          <mxGeometry x="12" width="32" height="32" as="geometry" />
        </mxCell>
        <mxCell id="y_fMPFTzz9CIE6H5T-Y4-64" style="vsdxID=1425;fillColor=#32bedd;gradientColor=none;shape=stencil(lZFhDoIwDIVP079kthEPgHgPEoZrnBsZU+D2bmmMYiKBf+9132uaN6BqME2vAdUQg7/pkdtogM6AyM7owDEpoBqo6nzQ1+AfrhXfN5nM6u6fecMkuYNSOYNqFi/uIqhlt4KWZXHE//gSfoc3oEQFnbafsePiBZrEp5SOrZVOv99/S0wj+QCqXw==);strokeColor=none;strokeWidth=3;spacingTop=-3;spacingBottom=-3;spacingLeft=-3;spacingRight=-3;points=[];labelBackgroundColor=none;rounded=0;html=1;whiteSpace=wrap;fontStyle=0" vertex="1" parent="y_fMPFTzz9CIE6H5T-Y4-60">
          <mxGeometry x="51" y="40" width="14" height="24" as="geometry" />
        </mxCell>
        <mxCell id="y_fMPFTzz9CIE6H5T-Y4-65" style="vsdxID=1426;fillColor=#9cebff;gradientColor=none;shape=stencil(UzV2Ls5ILEhVNTIoLinKz04tz0wpyVA1dlE1MsrMy0gtyiwBslSNXVWNndPyi1LTi/JL81Ig/IJEkEoQKze/DGRCBUSfoYEBSI+RQSWEb2qgZ2ABFnGDKM/JzENSboqqGqYbq1pKDMZjLIkuJqgcyEAETlpmTg4kbJHl0QMTKASJCGNXAA==);strokeColor=none;strokeWidth=3;spacingTop=-3;spacingBottom=-3;spacingLeft=-3;spacingRight=-3;points=[];labelBackgroundColor=none;rounded=0;html=1;whiteSpace=wrap;fontStyle=0" vertex="1" parent="y_fMPFTzz9CIE6H5T-Y4-60">
          <mxGeometry x="37" y="32" width="28" height="16" as="geometry" />
        </mxCell>
        <mxCell id="y_fMPFTzz9CIE6H5T-Y4-66" style="vsdxID=1427;fillColor=#50e6ff;gradientColor=none;shape=stencil(UzV2Ls5ILEhVNTIoLinKz04tz0wpyVA1dlE1MsrMy0gtyiwBslSNXVWNndPyi1LTi/JL81Ig/IJEkEoQKze/DGRCBUSfoYEBSI+RQSWEb2ysZ2wOFnGDKM/JzMOjHMbHqhhVqZmZnqkRsYrxmEqhizGUAxmIwEnLzMmBhC2yPHpgAoUgEWHsCgA=);strokeColor=none;strokeWidth=3;spacingTop=-3;spacingBottom=-3;spacingLeft=-3;spacingRight=-3;points=[];labelBackgroundColor=none;rounded=0;html=1;whiteSpace=wrap;fontStyle=0" vertex="1" parent="y_fMPFTzz9CIE6H5T-Y4-60">
          <mxGeometry x="37" y="40" width="14" height="24" as="geometry" />
        </mxCell>
        <mxCell id="y_fMPFTzz9CIE6H5T-Y4-67" style="vsdxID=1428;fillColor=#9cebff;gradientColor=none;shape=stencil(UzV2Ls5ILEhVNTIoLinKz04tz0wpyVA1dlE1MsrMy0gtyiwBslSNXVWNndPyi1LTi/JL81Ig/IJEkEoQKze/DGRCBUSfAUiHkUElhGdiqWduChZxgyjOycxDUmxogKrcgHilMD5WxSQ5goBiIAPh17TMnBxIUCHLo4cNUAgSrsauAA==);strokeColor=none;strokeWidth=3;spacingTop=-3;spacingBottom=-3;spacingLeft=-3;spacingRight=-3;points=[];labelBackgroundColor=none;rounded=0;html=1;whiteSpace=wrap;fontStyle=0" vertex="1" parent="y_fMPFTzz9CIE6H5T-Y4-60">
          <mxGeometry x="37" y="49" width="14" height="16" as="geometry" />
        </mxCell>
        <mxCell id="y_fMPFTzz9CIE6H5T-Y4-68" style="vsdxID=1429;fillColor=#50e6ff;gradientColor=none;shape=stencil(UzV2Ls5ILEhVNTIoLinKz04tz0wpyVA1dlE1MsrMy0gtyiwBslSNXVWNndPyi1LTi/JL81Ig/IJEkEoQKze/DGRCBUSfoYEBSI+RQSWEb2KpZ24KFnGDKM/JzENSjqrYgFiFMFuwKiXRCQSVAxkI36Zl5uRAAgtZHj10gEKQkDV2BQA=);strokeColor=none;strokeWidth=3;spacingTop=-3;spacingBottom=-3;spacingLeft=-3;spacingRight=-3;points=[];labelBackgroundColor=none;rounded=0;html=1;whiteSpace=wrap;fontStyle=0" vertex="1" parent="y_fMPFTzz9CIE6H5T-Y4-60">
          <mxGeometry x="51" y="49" width="14" height="16" as="geometry" />
        </mxCell>
        <UserObject label="" tags="Background" id="y_fMPFTzz9CIE6H5T-Y4-69">
          <mxCell style="vsdxID=1430;fillColor=none;gradientColor=none;strokeColor=none;spacingTop=-3;spacingBottom=-3;spacingLeft=-3;spacingRight=-3;points=[];labelBackgroundColor=none;rounded=0;html=1;whiteSpace=wrap;fontStyle=0" vertex="1" parent="1">
            <mxGeometry x="2252" y="3057" width="54" height="65" as="geometry" />
          </mxCell>
        </UserObject>
        <mxCell id="y_fMPFTzz9CIE6H5T-Y4-70" style="vsdxID=1431;fillColor=#0078d4;gradientColor=none;shape=stencil(vVTbcoMgEP0aH90BVlCf0+Q/mASVqdUMmsb+fbGQ6jqt7Uv7hmcvZzkHN8HD0OirSQQbRtc/m7u9jE2CT4kQtmuMs6M/JXhM8FD1ztSuv3WX8H3Vc+Z8eulf5w5TqOOMzTWCvYXvTEHOP5BTSD/fXMjn24II5AiyCNAkAqQYII9ZESoliAhNGCDJQcWkiJQlKLEm1+7swy7OisCyUODitAIkxqZx/AIycp+lJZtSPdkhdf2oR9t3IR4v02pXm9TTpVWraxIa7sZcV/CuOujpSqrPfHNJ9WFUG6/g54xIM/AbV1rbrUykFvIMEPdU5HKroqIqeqElbckhl/+oIkJZUBX9BFxQFYWCAqmSbPPCNjKyPVLvAs8pKaOESgETlHA91uMRKygl5V3k+70jj65f/6aLx39iCH1eP+4If1j2S2XbNqyndXy7jzwUdhke3wE=);strokeColor=none;strokeWidth=3;spacingTop=-3;spacingBottom=-3;spacingLeft=-3;spacingRight=-3;points=[];labelBackgroundColor=none;rounded=0;html=1;whiteSpace=wrap;fontStyle=0" vertex="1" parent="y_fMPFTzz9CIE6H5T-Y4-69">
          <mxGeometry width="54" height="65" as="geometry" />
        </mxCell>
        <mxCell id="y_fMPFTzz9CIE6H5T-Y4-71" style="vsdxID=1432;fillColor=#0078d4;gradientColor=none;shape=stencil(tVTRcoMgEPwaH70BTkh4TtP/YBI0TK1m0DT274sFraeT9ClvuCzs3S5ehofuYq42E6zrffth7+7cXzJ8y4RwzcV614dVhscMD2XrbeXbW3OO31czMsfVZ/s13jDEc5yx8Yxg3/G7UKDUL/Ie6aebj3y+PpCAHYLCCA0iQooB8sRKkJYgdomFEZIcVJFYCdIaiLjxp7DrU60ITES+T9UKkAlJlGIPqEhD85VsyM3guty3veld28Tt1ExtfGXzIJeXtanIVne39rqA+TN3MKhp6s+yc0FunrxZOoiUgQ9SqV2zCJFGyAuQ8pmLnG9c1MTFAFATOQfJX+ci7SbELB+oP3IdQe+o6+HMdMvkulCgp/dGg5hf5Mp29kw0pMYUFWVUUClgSAWXZU1vPpQlqe6m4U2CmwD3JMD1Xx2exCz78vz+HSlh8TeOSlfXcZot99fjK0Bx9OHxBw==);strokeColor=none;strokeWidth=3;spacingTop=-3;spacingBottom=-3;spacingLeft=-3;spacingRight=-3;points=[];labelBackgroundColor=none;rounded=0;html=1;whiteSpace=wrap;fontStyle=0" vertex="1" parent="y_fMPFTzz9CIE6H5T-Y4-69">
          <mxGeometry x="2" y="2" width="49" height="59" as="geometry" />
        </mxCell>
        <mxCell id="y_fMPFTzz9CIE6H5T-Y4-72" style="vsdxID=1433;fillColor=#ffbd02;gradientColor=none;shape=stencil(vVbbcoIwEP0aHt1JNvfn1v4H06IypeJEevv7rhNEF0Ta0fIGm72dk70kUw/7Tb4rMhT7JtavxWf50mwy9ZghlttNEcuGvjK1zNTDqo7FOtbv25f0v8sPmoevt/rj4OEr2QUNIRysUHwniXbgk+QpGVTl9szAe3DmNgMlwNtzgzw+02lsDbQE4ZJBPFpI0DKJWiXnwCLzGkDqVmWRf5X7RaybvCnrbToW6azK47pYUMDFqsrX7Gj/WRS7gfhiisqBkjxF9GAUSxGJWs1SdGDw/1LktCP2o3cEXWZdgDUD1kVgkKQEP3KVM0AaRJ+oPAPGXdfnFPThg+cXKpgzIwHDXNB56GBBuis4QMgJKCeVVkMKMRcWGjnOXQw+gkZiH01AhqZL/sTP8TJnqMrR4L9SpzIKt91lMKD4KKQ6b33Oc51TG4SvHEeT5i9tTIPL69sMJjYOzUrFSZYOhGEsK+o5DlN68PetMjmeIgVzvUKQultCrZJFMHxCEg573/ksx3m3umu7AUWX1ygO16jucB69WuDTAmnwqtkwjUcfKyW0w1ri82rQAVSf7r4NewXSdP/Rx+m9uCqrKj03z8/770sSpbepWv4A);strokeColor=none;strokeWidth=3;spacingTop=-3;spacingBottom=-3;spacingLeft=-3;spacingRight=-3;points=[];labelBackgroundColor=none;rounded=0;html=1;whiteSpace=wrap;fontStyle=0" vertex="1" parent="y_fMPFTzz9CIE6H5T-Y4-69">
          <mxGeometry x="14" y="12" width="24" height="32" as="geometry" />
        </mxCell>
        <mxCell id="y_fMPFTzz9CIE6H5T-Y4-73" style="vsdxID=1434;fillColor=#ffe452;gradientColor=none;shape=stencil(vZPbkoMgDIafhkszICp63Xbfg9miMqXiRLaHt19Y7Fac1sve5fAnmY8EwndTL0dFcjo5tCd11UfXE74nea6HXqF23iL8QPiutag6tD/DMfqjDMpgne0ldLjFuhJEE4pyeo8B+ud9Ra3Rw0LbVFBuiCV++wz+Nw6poMVZLKCaq2cJozTpxqAuZkEmb3rK0DrptB2Ww6iR2KnMD8taI7skNV2VGhdh9p6FQcPT4XQT5vFKD5gaSp7ApChNAZx9iiUdLaCutkgYW69lRVKAEC+2/AGQ7WP0xvOKW21M/ATL/PrqfSj+GH74BQ==);strokeColor=none;strokeWidth=3;spacingTop=-3;spacingBottom=-3;spacingLeft=-3;spacingRight=-3;points=[];labelBackgroundColor=none;rounded=0;html=1;whiteSpace=wrap;fontStyle=0" vertex="1" parent="y_fMPFTzz9CIE6H5T-Y4-69">
          <mxGeometry x="14" y="27" width="24" height="16" as="geometry" />
        </mxCell>
        <mxCell id="y_fMPFTzz9CIE6H5T-Y4-74" style="vsdxID=1435;fillColor=#ffd400;gradientColor=none;fillOpacity=50;strokeOpacity=50;shape=stencil(vVPLjoMwDPyaHImSmBY49/EfURsg2pQgk7b07zfZgJawFdJeerNnxrYmdggchlb2igg2OLRf6qmvriVwJELorlWonY8InAgcaouqQXvvrjHvZVCG6GYfocMY66qcCh6qBHtFhP1k5yg2uluIgeYbWokXz+Ck3dFABS1O4oLuq4iMy+q5F6dlPtGZHPWQoXXSadslYiOxUZkfldVGNgk1PJXq/8BvjVQlZUU6nW164XztZScSL3P93M+/K/BP2VkPL2i5/6cbSNxUfnvwZtOfWM32Qfrg95RrbUz8CUt+ffoeit8GTt8=);strokeColor=none;strokeWidth=3;spacingTop=-3;spacingBottom=-3;spacingLeft=-3;spacingRight=-3;points=[];labelBackgroundColor=none;rounded=0;html=1;whiteSpace=wrap;fontStyle=0" vertex="1" parent="y_fMPFTzz9CIE6H5T-Y4-69">
          <mxGeometry x="15" y="27" width="24" height="16" as="geometry" />
        </mxCell>
        <UserObject label="" tags="Background" id="y_fMPFTzz9CIE6H5T-Y4-75">
          <mxCell style="vsdxID=1436;fillColor=none;gradientColor=none;strokeColor=none;spacingTop=-3;spacingBottom=-3;spacingLeft=-3;spacingRight=-3;points=[];labelBackgroundColor=none;rounded=0;html=1;whiteSpace=wrap;fontStyle=0" vertex="1" parent="1">
            <mxGeometry x="2082" y="3057" width="65" height="66" as="geometry" />
          </mxCell>
        </UserObject>
        <mxCell id="y_fMPFTzz9CIE6H5T-Y4-76" style="vsdxID=1437;rotation=315;fillColor=#198ab3;gradientColor=none;shape=stencil(vVPLDoMgEPwajhqENtaztf9BKiopFbPQqn9fLDa+aprUxNsyO+swi4NorAtWcUSwNqBuvBapKRA9I0JEWXAQxlaIJojGmQKeg3qUqTtXrGN21V09uy80bg53EwS37nQkfhS8kYsjM7jaLvTkAPuh40M/cAh9HDlowWk/QK/ReKwR2gNlmBGqnOhLBjn3rJqXSZZPWrrmvFrA/f2kKEdmTpFPv2pvcLO2oB3szMWH6/3tZ7Gh3d5m8V9sfJm11exg5UdmbDGkLRNSurCO+/N0WsglmyYv);strokeColor=none;strokeWidth=3;spacingTop=-3;spacingBottom=-3;spacingLeft=-3;spacingRight=-3;points=[];labelBackgroundColor=none;rounded=0;html=1;whiteSpace=wrap;fontStyle=0" vertex="1" parent="y_fMPFTzz9CIE6H5T-Y4-75">
          <mxGeometry x="-2" y="53" width="22" height="5" as="geometry" />
        </mxCell>
        <mxCell id="y_fMPFTzz9CIE6H5T-Y4-77" style="vsdxID=1438;fillColor=#5ea0ef;gradientColor=none;shape=stencil(xVrbcuJIDP0aHtPV98vz7Ox/UDMkoZYNKcLskL8feUzLSMJtUwPet0S0LPnorvbKffl4Xb9vVlZ/HA/7fzY/t9+Pryv318ra7dvr5rA9wl8r93XlvjzvD5uXw/7H2/f+//d1d7L769/9f90TTj1fScrYjsvqz57itMrxN+XvnmF9+Aa/Hs4MwarSnz98IiW7nlQfqlUp5KGmqHwWc3pan7YfT4f9cX3c7t/633X/2259eNk8gcCn5936hfz08XOzeRfk6yqC+MR01FXrEyoUDVGxqPRADXfbt80s6WPnTaCA6mq3MQiiFxCETDFQVAeXlHOPg4Bq6L1KkWoIpEitpIl+3qp0V/VMA0AAh/u5wVCpAAblqJ/npGx5HITMKxrir76U8aowr+hI7KUgI2T61KyKWeylGuKvM2SM9hpLWvk/YxC+oHk+MQQzG1VkjwTbLJZObFI+c/EpNxhyzfHIEJWL4wxQFLTlDGdfus5glHWUAZRsnLcqJH6+NFKic5ivK0OukF9nAIt4zpBKgyEqa25iyJhhK0OphrkPgwdU6TsY3fCLEPkrs+PUzyH/Z+rmQEmeeHoEO7kRUBbw9Jb4sditsXqRxz19qVywg6k5B4rlA19K6Oikjpbq2GrUFgB+Rp9IG8scVKAti3WsOFEJCRh8m4F1EJAgHIUNSAjJ2WEyYrtIn8dUdEqzkOpItOACUjGOvPhDOh2K+wxDUcsGpyJ1BV4KKAhdcbQUBCAF2ulJOy0KgnynCW+dBmEKtK6khkY4aExcYwwUZogfw7oUINXGpR5yvCxDyLj8/8E8iJ/JIFCYwhkoraItEREMDOeIJQhxjsrTCVhaL11MD0vgHOKI+JkMHeUWuwjUqF2g4zQUEJjmbCNrxILloMIMJFa4wRk8NR6k9/zAIZG1YwmbfCF+JgNQGmaBxj7F5vlvPw49zAY5amb9PJN8qK29Plk8FWvOt1iXsNVzeKoubT4dGs2054opK1O3kIDEqtlcxN34aRgqYm6cFnUqUIcDiqftBMjXjunrFwvrabRY0Dnl6FBlQnNGmsEgtjiBgQYkT2s7mMFR0Ibt1QKrHA8xydprILG5xkL1FE1YCnfV8aZVziD++ktFZVh6BJKmCz47tJ+DOe19Z4aGu87wJuqvBqaem/IpSGCLD8HAircW4yCQMILPzzB8LPf6oTOuSOIXCtQkbtGJMYkbbPgwiXtVqs86eaomcUhijY4IPEu0iLo1YofakQ3jq8cVWwVeucAhLYttc6EEFj6HBbH41DhPXjjTYsl9hvPTaIlK9K2xldvFRk4wsFgpMlaKYmnT8c0JhFPdMS+QNgVmg/ixgdzxWwenaO8u/P+iOX68G0xalaXMwFuchB3gdTcIfNEqGET5TLzEFxQ6lPjElqt4u7TImsUKoxrqqbLCdu993+uuVnRP20l0xp7qWyDW8jgI4DmWzf8diQ1MUEbCiBrLNLBeGqHhrTNQmIINMkJqtBByhBQMYs/iWTwAqVa30cEN4tjfNy/eNCgM4mcyTMA2A2e2mClYgodbt9AYx8xw/YKXlREvZetTvaJqg3uUxYJaSE+pOb3GrLJw/9jo8h1WA7yRAVSoq10FdrEVyAyzUj9IeMlUr1qCagmYPs9qgcZKhMVA8+8Kum2zuAIuD0yDTMcsOisgsd0WJBW2woOQu69dG51VxgtkKX60s+JtwsUGf8j2dD8Ecu7bJvyRK7ErrCLCFZyrLYBtRQUDBS0n3JdV0HIcHPFMoV/BQCa/88K+de3nGWSD9LF9EHdsr7S8bR2DdYn7rmmrsoxVULth09L6RA5MyNrRLFYz4Crsah6mvTu3o63wLuLOsTSrMZgxy0Vfoi8F3sJmiwGpJeJ72lDwx/Al5PN2t+s/pLz8nX85CaT+q0v39Rc=);strokeColor=none;strokeWidth=3;spacingTop=-3;spacingBottom=-3;spacingLeft=-3;spacingRight=-3;points=[];labelBackgroundColor=none;rounded=0;html=1;whiteSpace=wrap;fontStyle=0" vertex="1" parent="y_fMPFTzz9CIE6H5T-Y4-75">
          <mxGeometry x="18" width="47" height="47" as="geometry" />
        </mxCell>
        <mxCell id="y_fMPFTzz9CIE6H5T-Y4-78" style="vsdxID=1439;fillColor=#50e6ff;gradientColor=none;shape=stencil(vVHLDsIgEPwajiQI6RfU+h8bu22JCGRB2/69kG1iazx58DazM/vIjjBtmiCi0CplCjecbZ8nYc5Ca+snJJsLEqYTph0C4Ujh4XvmEaqzont41gkL96naodXKrGF6YSfQtUi0OXXDVlqPfJNP6usotUhYbJIUMmQb/GGrAxpRljVycDBuc1hKM2LclX8/7H9nFfB+82Cd45T2+mcspcSRmu4F);strokeColor=none;strokeWidth=3;spacingTop=-3;spacingBottom=-3;spacingLeft=-3;spacingRight=-3;points=[];labelBackgroundColor=none;rounded=0;html=1;whiteSpace=wrap;fontStyle=0" vertex="1" parent="y_fMPFTzz9CIE6H5T-Y4-75">
          <mxGeometry x="8" y="24" width="31" height="31" as="geometry" />
        </mxCell>
        <mxCell id="y_fMPFTzz9CIE6H5T-Y4-79" style="vsdxID=1440;fillColor=#FFFFFF;gradientColor=none;shape=stencil(vVHLDsIgEPwajiQI6RfU+h8bu22JCGRB2/69kG1iazx58DazM/vIjjBtmiCi0CplCjecbZ8nYc5Ca+snJJsLEqYTph0C4Ujh4XvmEaqzont41gkL96naodXKrGF6YSfQtUi0OXXDVlqPfJNP6usotUhYbJIUMmQb/GGrAxpRljVycDBuc1hKM2LclX8/7H9nFfB+82Cd45T2+mcspcSRmu4F);strokeColor=none;strokeWidth=3;spacingTop=-3;spacingBottom=-3;spacingLeft=-3;spacingRight=-3;points=[];labelBackgroundColor=none;rounded=0;html=1;whiteSpace=wrap;fontStyle=0" vertex="1" parent="y_fMPFTzz9CIE6H5T-Y4-75">
          <mxGeometry x="11" y="27" width="24" height="24" as="geometry" />
        </mxCell>
        <mxCell id="y_fMPFTzz9CIE6H5T-Y4-80" style="vsdxID=1441;fillColor=#76bc2d;gradientColor=none;shape=stencil(vVTLcoMwDPwaH9HYFn5wTtP/8DQGPKWQMbRJ/75mHNKYYHrrTUi71lprRPAwtuZsCafj5Id3e3GnqSX4Qjh3fWu9m0JE8EjwUA/eNn747E/x+2xm5Bx9DF/zCdfI4xwUzixOv2Om1MBi5jUSOtc/EFCCUgmBUZqHCwZUJnBEwJ3z5ZMgxYDn8UoBT/UgAyXzhEVuFm78W6j6RY8EqiPB3y9cQhUlLYdWCnSVTkWDKm+YwlzdWPhhMpMb+li/ieiMb2wRWhZ1Z5qkNF6sPT+lt4eAQMtM++0pI6SulAiVzuPLCmg65R01KECkFoZ2yPIEjsDYWr7Yka/XasKr2Xu0dB+cOh7uKqvUcaXv9i6SQaaKlQAU/+U346Az3bcH/PdfHoLfHVG7rosr5rG+3ikhFfcRHn8A);strokeColor=none;strokeWidth=3;spacingTop=-3;spacingBottom=-3;spacingLeft=-3;spacingRight=-3;points=[];labelBackgroundColor=none;rounded=0;html=1;whiteSpace=wrap;fontStyle=0" vertex="1" parent="y_fMPFTzz9CIE6H5T-Y4-75">
          <mxGeometry x="12" y="33" width="21" height="13" as="geometry" />
        </mxCell>
        <UserObject label="" tags="Background" id="y_fMPFTzz9CIE6H5T-Y4-81">
          <mxCell style="vsdxID=1442;fillColor=none;gradientColor=none;strokeColor=none;spacingTop=-3;spacingBottom=-3;spacingLeft=-3;spacingRight=-3;points=[];labelBackgroundColor=none;rounded=0;html=1;whiteSpace=wrap;fontStyle=0" vertex="1" parent="1">
            <mxGeometry x="1888" y="3057" width="63" height="67" as="geometry" />
          </mxCell>
        </UserObject>
        <mxCell id="y_fMPFTzz9CIE6H5T-Y4-82" style="vsdxID=1443;fillColor=#198ab3;gradientColor=none;shape=stencil(vVHLDsIgEPwajiQI6RfU+h8bu22JCGRB2/69kG1iazx58DazM/vIjjBtmiCi0CplCjecbZ8nYc5Ca+snJJsLEqYTph0C4Ujh4XvmEaqzont41gkL96naodXKrGF6YSfQtUi0OXXDVlqPfJNP6usotUhYbJIUMmQb/GGrAxpRljVycDBuc1hKM2LclX8/7H9nFfB+82Cd45T2+mcspcSRmu4F);strokeColor=none;spacingTop=-3;spacingBottom=-3;spacingLeft=-3;spacingRight=-3;points=[];labelBackgroundColor=none;rounded=0;html=1;whiteSpace=wrap;fontStyle=0" vertex="1" parent="y_fMPFTzz9CIE6H5T-Y4-81">
          <mxGeometry x="19" y="22" width="20" height="20" as="geometry" />
        </mxCell>
        <mxCell id="y_fMPFTzz9CIE6H5T-Y4-83" style="vsdxID=1444;fillColor=#32bedd;gradientColor=none;shape=stencil(vVHLDsIgEPwajiQI6RfU+h8bu22JCGRB2/69kG1iazx58DazM/vIjjBtmiCi0CplCjecbZ8nYc5Ca+snJJsLEqYTph0C4Ujh4XvmEaqzont41gkL96naodXKrGF6YSfQtUi0OXXDVlqPfJNP6usotUhYbJIUMmQb/GGrAxpRljVycDBuc1hKM2LclX8/7H9nFfB+82Cd45T2+mcspcSRmu4F);strokeColor=none;spacingTop=-3;spacingBottom=-3;spacingLeft=-3;spacingRight=-3;points=[];labelBackgroundColor=none;rounded=0;html=1;whiteSpace=wrap;fontStyle=0" vertex="1" parent="y_fMPFTzz9CIE6H5T-Y4-81">
          <mxGeometry x="53" y="12" width="10" height="10" as="geometry" />
        </mxCell>
        <mxCell id="y_fMPFTzz9CIE6H5T-Y4-84" style="vsdxID=1445;fillColor=#32bedd;gradientColor=none;shape=stencil(vVHLDsIgEPwajiQI6RfU+h8bu22JCGRB2/69kG1iazx58DazM/vIjjBtmiCi0CplCjecbZ8nYc5Ca+snJJsLEqYTph0C4Ujh4XvmEaqzont41gkL96naodXKrGF6YSfQtUi0OXXDVlqPfJNP6usotUhYbJIUMmQb/GGrAxpRljVycDBuc1hKM2LclX8/7H9nFfB+82Cd45T2+mcspcSRmu4F);strokeColor=none;spacingTop=-3;spacingBottom=-3;spacingLeft=-3;spacingRight=-3;points=[];labelBackgroundColor=none;rounded=0;html=1;whiteSpace=wrap;fontStyle=0" vertex="1" parent="y_fMPFTzz9CIE6H5T-Y4-81">
          <mxGeometry x="53" y="28" width="10" height="10" as="geometry" />
        </mxCell>
        <mxCell id="y_fMPFTzz9CIE6H5T-Y4-85" style="vsdxID=1446;fillColor=#32bedd;gradientColor=none;shape=stencil(vVHLDsIgEPwajiQI6RfU+h8bu22JCGRB2/69kG1iazx58DazM/vIjjBtmiCi0CplCjecbZ8nYc5Ca+snJJsLEqYTph0C4Ujh4XvmEaqzont41gkL96naodXKrGF6YSfQtUi0OXXDVlqPfJNP6usotUhYbJIUMmQb/GGrAxpRljVycDBuc1hKM2LclX8/7H9nFfB+82Cd45T2+mcspcSRmu4F);strokeColor=none;spacingTop=-3;spacingBottom=-3;spacingLeft=-3;spacingRight=-3;points=[];labelBackgroundColor=none;rounded=0;html=1;whiteSpace=wrap;fontStyle=0" vertex="1" parent="y_fMPFTzz9CIE6H5T-Y4-81">
          <mxGeometry x="53" y="45" width="10" height="10" as="geometry" />
        </mxCell>
        <mxCell id="y_fMPFTzz9CIE6H5T-Y4-86" style="vsdxID=1447;fillColor=#50e6ff;gradientColor=none;shape=stencil(vVHLDsIgEPwajiQI6RfU+h8bu22JCGRB2/69kG1iazx58DazM/vIjjBtmiCi0CplCjecbZ8nYc5Ca+snJJsLEqYTph0C4Ujh4XvmEaqzont41gkL96naodXKrGF6YSfQtUi0OXXDVlqPfJNP6usotUhYbJIUMmQb/GGrAxpRljVycDBuc1hKM2LclX8/7H9nFfB+82Cd45T2+mcspcSRmu4F);strokeColor=none;spacingTop=-3;spacingBottom=-3;spacingLeft=-3;spacingRight=-3;points=[];labelBackgroundColor=none;rounded=0;html=1;whiteSpace=wrap;fontStyle=0" vertex="1" parent="y_fMPFTzz9CIE6H5T-Y4-81">
          <mxGeometry x="41" y="20" width="10" height="10" as="geometry" />
        </mxCell>
        <mxCell id="y_fMPFTzz9CIE6H5T-Y4-87" style="vsdxID=1448;fillColor=#50e6ff;gradientColor=none;shape=stencil(vVHLDsIgEPwajiQI6RfU+h8bu22JCGRB2/69kG1iazx58DazM/vIjjBtmiCi0CplCjecbZ8nYc5Ca+snJJsLEqYTph0C4Ujh4XvmEaqzont41gkL96naodXKrGF6YSfQtUi0OXXDVlqPfJNP6usotUhYbJIUMmQb/GGrAxpRljVycDBuc1hKM2LclX8/7H9nFfB+82Cd45T2+mcspcSRmu4F);strokeColor=none;spacingTop=-3;spacingBottom=-3;spacingLeft=-3;spacingRight=-3;points=[];labelBackgroundColor=none;rounded=0;html=1;whiteSpace=wrap;fontStyle=0" vertex="1" parent="y_fMPFTzz9CIE6H5T-Y4-81">
          <mxGeometry x="41" y="37" width="10" height="10" as="geometry" />
        </mxCell>
        <mxCell id="y_fMPFTzz9CIE6H5T-Y4-88" style="vsdxID=1449;fillColor=#949494;gradientColor=none;shape=stencil(tVTbboMwDP0aHrESm0t47rr/iNoA0RigQFf29wtLUAmIbdK2t8Q+x5fjxBGdhlr2KkI2jKZ7UXd9HeuIniJE3dbK6NGeIjpHdCo7oyrT3dqru/dyRs6n1+5tjjA5HufAcWYhe/cWxj7vzw4uzcX6zAIHUTi08fAEMuEsj4iCgoiFgCTxmFhOeohNN8pRd63zu3yskaZSsc0Xl42sAtdwV6pfmfm6wka3q4bSHPIwPSEgrQmXm3EScE8RQJmn8C2HTei7yIEvKG8SGaRevIn2KNqifi5pEUrqR7J0JBAS/FNB2bGg2+SZfTH0q3aKAlgaxLRDY/R/DW0Hvi6A7yvA/bPAINkybEsSPBw2g1wca8lA5OEkOWTJF/gQTIDH2G9/sj08tkCpm8YtkbV/uzWsyW0cOn8A);strokeColor=none;spacingTop=-3;spacingBottom=-3;spacingLeft=-3;spacingRight=-3;points=[];labelBackgroundColor=none;rounded=0;html=1;whiteSpace=wrap;fontStyle=0" vertex="1" parent="y_fMPFTzz9CIE6H5T-Y4-81">
          <mxGeometry width="50" height="20" as="geometry" />
        </mxCell>
        <mxCell id="y_fMPFTzz9CIE6H5T-Y4-89" style="vsdxID=1450;fillColor=#949494;gradientColor=none;shape=stencil(vZTBcoMgEIafhqM7wAaRc5q+B5OgMrXiIG3s2weL04gzpod2clv//XeXD10JHsdWD4ZwOgbv3szVXkJL8IVwbvvWeBtiRPBE8Fg7bxrvPvpLeh707Jyjd/c5d5hSneIgca7i9CspFLD8Fl6Tv7P9ys+BZe4Sgcq1XftzzPrFXv5090tBBVQlZbHQnX50KvRkx8K7oIN1febutG9MEWcVdaebLDVejRlWMtuHyUcrBRXfR0GQKkc5gCgzlO3l3Dv+Fwzdh1ESZD4eD8AeAMXjb4AECJYBMZpfEVcg8FlA2+ECWPUnmgff+jPez6+bFoP7mta269KWr/PbtY5S+iXg6QY=);strokeColor=none;spacingTop=-3;spacingBottom=-3;spacingLeft=-3;spacingRight=-3;points=[];labelBackgroundColor=none;rounded=0;html=1;whiteSpace=wrap;fontStyle=0" vertex="1" parent="y_fMPFTzz9CIE6H5T-Y4-81">
          <mxGeometry x="29" y="50" width="20" height="17" as="geometry" />
        </mxCell>
        <mxCell id="y_fMPFTzz9CIE6H5T-Y4-90" style="vsdxID=1451;fillColor=#B3B3B3;gradientColor=none;shape=stencil(vZTNcoQgDMefhqMZCKJw3m7fg+miMrXqoO3aty8W2xV3dHvoeAv5+IefxBB+6ivdGYK0H1z7aq72MlSEPxFE21TG2cFbhJ8JPxWtM6Vr35tLOHd6ypyst/ZjUhhDHaN0qkH6Gc4yh4x/e55DunYvPurm9BQohnw3FyBwETxzipKA2YYmHRM92j5x7aAH2zYhPt+g1q40ie+XFLUuo1B/NaZbuNnyhrVtFkBIATFqn1HIxTYSghIxEoOcR0hMQsYiTaGAyaOQ7tv7Dyq3iTiIFREClQ+IMsjTo4AoxL3pHotco/w874YY+x3RfwKhfwfJBMh0Dwb5etSkih8GhIwlc0jVUTz+3+Uqaq8UqH0idke0GrXVhrkpHgD0cL1547YaC1vXYbMu4+tV6l1hDfPzFw==);strokeColor=none;spacingTop=-3;spacingBottom=-3;spacingLeft=-3;spacingRight=-3;points=[];labelBackgroundColor=none;rounded=0;html=1;whiteSpace=wrap;fontStyle=0" vertex="1" parent="y_fMPFTzz9CIE6H5T-Y4-81">
          <mxGeometry y="16" width="29" height="50" as="geometry" />
        </mxCell>
        <UserObject label="&lt;div style=&quot;font-size: 1px&quot;&gt;&lt;font style=&quot;font-size:25.4px;font-family:Segoe UI Semibold;color:#595959;direction:ltr;letter-spacing:0px;line-height:120%;opacity:1&quot;&gt;Policy &lt;/font&gt;&lt;font style=&quot;font-size:25.4px;font-family:Segoe UI Semibold;color:#595959;direction:ltr;letter-spacing:0px;line-height:120%;opacity:1&quot;&gt;A&lt;/font&gt;&lt;font style=&quot;font-size:25.4px;font-family:Segoe UI Semibold;color:#595959;direction:ltr;letter-spacing:0px;line-height:120%;opacity:1&quot;&gt;ssignment&lt;br&gt;&lt;/font&gt;&lt;/div&gt;" tags="Background" id="y_fMPFTzz9CIE6H5T-Y4-91">
          <mxCell style="verticalAlign=middle;align=center;overflow=width;vsdxID=1452;fillColor=none;gradientColor=none;shape=stencil(nZBLDoAgDERP0z3SIyjew0SURgSD+Lu9kMZoXLhwN9O+tukAlrNpJg1SzDH4QW/URgNYgZTkjA4UkwJUgGXng+6DX1zLfmoymdXo17xh5zmRJ6Q42BWCfc2oJfdAr+Yv+AP9Cb7OJ3H/2JG1HNGz/84klThPVCc=);strokeColor=none;points=[];labelBackgroundColor=none;rounded=0;html=1;whiteSpace=wrap;fontStyle=0" vertex="1" parent="1">
            <mxGeometry x="1817" y="3123" width="203" height="63" as="geometry" />
          </mxCell>
        </UserObject>
        <UserObject label="&lt;div style=&quot;font-size: 1px&quot;&gt;&lt;font style=&quot;font-size:25.4px;font-family:Segoe UI Semibold;color:#595959;direction:ltr;letter-spacing:0px;line-height:120%;opacity:1&quot;&gt;Network&lt;br&gt;Watcher&lt;br&gt;&lt;/font&gt;&lt;/div&gt;" tags="Background" id="y_fMPFTzz9CIE6H5T-Y4-92">
          <mxCell style="verticalAlign=middle;align=center;overflow=width;vsdxID=1453;fillColor=none;gradientColor=none;shape=stencil(nZBLDoAgDERP0z3SIyjew0SURgSD+Lu9kMZoXLhwN9O+tukAlrNpJg1SzDH4QW/URgNYgZTkjA4UkwJUgGXng+6DX1zLfmoymdXo17xh5zmRJ6Q42BWCfc2oJfdAr+Yv+AP9Cb7OJ3H/2JG1HNGz/84klThPVCc=);strokeColor=none;points=[];labelBackgroundColor=none;rounded=0;html=1;whiteSpace=wrap;fontStyle=0" vertex="1" parent="1">
            <mxGeometry x="2028" y="3123" width="152" height="63" as="geometry" />
          </mxCell>
        </UserObject>
        <UserObject label="&lt;div style=&quot;font-size: 1px&quot;&gt;&lt;font style=&quot;font-size:25.4px;font-family:Segoe UI Semibold;color:#595959;direction:ltr;letter-spacing:0px;line-height:120%;opacity:1&quot;&gt;Defender for Cloud&lt;br&gt;&lt;/font&gt;&lt;/div&gt;" tags="Background" id="y_fMPFTzz9CIE6H5T-Y4-93">
          <mxCell style="verticalAlign=middle;align=center;overflow=width;vsdxID=1454;fillColor=none;gradientColor=none;shape=stencil(nZBLDoAgDERP0z3SIyjew0SURgSD+Lu9kMZoXLhwN9O+tukAlrNpJg1SzDH4QW/URgNYgZTkjA4UkwJUgGXng+6DX1zLfmoymdXo17xh5zmRJ6Q42BWCfc2oJfdAr+Yv+AP9Cb7OJ3H/2JG1HNGz/84klThPVCc=);strokeColor=none;points=[];labelBackgroundColor=none;rounded=0;html=1;whiteSpace=wrap;fontStyle=0" vertex="1" parent="1">
            <mxGeometry x="2207" y="3123" width="152" height="63" as="geometry" />
          </mxCell>
        </UserObject>
        <UserObject label="&lt;div style=&quot;font-size: 1px&quot;&gt;&lt;font style=&quot;font-size:25.4px;font-family:Segoe UI Semibold;color:#595959;direction:ltr;letter-spacing:0px;line-height:120%;opacity:1&quot;&gt;Role&lt;br&gt;&lt;/font&gt;&lt;font style=&quot;font-size:25.4px;font-family:Segoe UI Semibold;color:#595959;direction:ltr;letter-spacing:0px;line-height:120%;opacity:1&quot;&gt;E&lt;/font&gt;&lt;font style=&quot;font-size:25.4px;font-family:Segoe UI Semibold;color:#595959;direction:ltr;letter-spacing:0px;line-height:120%;opacity:1&quot;&gt;nt&lt;/font&gt;&lt;font style=&quot;font-size:25.4px;font-family:Segoe UI Semibold;color:#595959;direction:ltr;letter-spacing:0px;line-height:120%;opacity:1&quot;&gt;i&lt;/font&gt;&lt;font style=&quot;font-size:25.4px;font-family:Segoe UI Semibold;color:#595959;direction:ltr;letter-spacing:0px;line-height:120%;opacity:1&quot;&gt;tlement&lt;br&gt;&lt;/font&gt;&lt;/div&gt;" tags="Background" id="y_fMPFTzz9CIE6H5T-Y4-94">
          <mxCell style="verticalAlign=middle;align=center;overflow=width;vsdxID=1455;fillColor=none;gradientColor=none;shape=stencil(nZBLDoAgDERP0z3SIyjew0SURgSD+Lu9kMZoXLhwN9O+tukAlrNpJg1SzDH4QW/URgNYgZTkjA4UkwJUgGXng+6DX1zLfmoymdXo17xh5zmRJ6Q42BWCfc2oJfdAr+Yv+AP9Cb7OJ3H/2JG1HNGz/84klThPVCc=);strokeColor=none;points=[];labelBackgroundColor=none;rounded=0;html=1;whiteSpace=wrap;fontStyle=0" vertex="1" parent="1">
            <mxGeometry x="1602" y="3122" width="232" height="63" as="geometry" />
          </mxCell>
        </UserObject>
        <UserObject label="&lt;div style=&quot;font-size: 1px&quot;&gt;&lt;p style=&quot;text-align:left;margin-left:20;margin-right:0;margin-top:8px;margin-bottom:0px;text-indent:0;vertical-align:middle;direction:ltr;&quot;&gt;&lt;font style=&quot;font-size:25.4px;font-family:Segoe UI Semibold;color:#595959;direction:ltr;letter-spacing:0px;line-height:120%;opacity:1&quot;&gt;Azure Monitor&lt;br&gt;&lt;/font&gt;&lt;/p&gt;&lt;/div&gt;" tags="Background" id="y_fMPFTzz9CIE6H5T-Y4-95">
          <mxCell style="verticalAlign=middle;align=left;overflow=width;vsdxID=1456;fillColor=none;gradientColor=none;shape=stencil(nZBLDoAgDERP0z3SIyjew0SURgSD+Lu9kMZoXLhwN9O+tukAlrNpJg1SzDH4QW/URgNYgZTkjA4UkwJUgGXng+6DX1zLfmoymdXo17xh5zmRJ6Q42BWCfc2oJfdAr+Yv+AP9Cb7OJ3H/2JG1HNGz/84klThPVCc=);strokeColor=none;spacingTop=-3;spacingBottom=-3;spacingLeft=-3;spacingRight=-3;points=[];labelBackgroundColor=none;rounded=0;html=1;whiteSpace=wrap;fontStyle=0" vertex="1" parent="1">
            <mxGeometry x="1721" y="2809" width="200" height="60" as="geometry" />
          </mxCell>
        </UserObject>
        <mxCell id="y_fMPFTzz9CIE6H5T-Y4-96" style="fontStyle=0" vertex="1" parent="1">
          <mxGeometry x="2292" y="2622" as="geometry" />
        </mxCell>
        <mxCell id="y_fMPFTzz9CIE6H5T-Y4-97" value="" style="image;aspect=fixed;html=1;points=[];align=center;fontSize=12;image=img/lib/azure2/networking/Firewalls.svg;" vertex="1" parent="1">
          <mxGeometry x="1648" y="2960" width="63.9" height="54" as="geometry" />
        </mxCell>
        <UserObject label="&lt;div style=&quot;font-size: 1px&quot;&gt;&lt;p style=&quot;text-align:left;margin-left:20;margin-right:0;margin-top:8px;margin-bottom:0px;text-indent:0;vertical-align:middle;direction:ltr;&quot;&gt;&lt;font style=&quot;font-size:25.4px;font-family:Segoe UI Semibold;color:#595959;direction:ltr;letter-spacing:0px;line-height:120%;opacity:1&quot;&gt;Azure Firewall&lt;br&gt;&lt;/font&gt;&lt;/p&gt;&lt;/div&gt;" tags="Background" id="y_fMPFTzz9CIE6H5T-Y4-98">
          <mxCell style="verticalAlign=middle;align=left;overflow=width;vsdxID=1368;fillColor=none;gradientColor=none;shape=stencil(nZBLDoAgDERP0z3SIyjew0SURgSD+Lu9kMZoXLhwN9O+tukAlrNpJg1SzDH4QW/URgNYgZTkjA4UkwJUgGXng+6DX1zLfmoymdXo17xh5zmRJ6Q42BWCfc2oJfdAr+Yv+AP9Cb7OJ3H/2JG1HNGz/84klThPVCc=);strokeColor=none;spacingTop=-3;spacingBottom=-3;spacingLeft=-3;spacingRight=-3;points=[];labelBackgroundColor=none;rounded=0;html=1;whiteSpace=wrap;fontStyle=0" vertex="1" parent="1">
            <mxGeometry x="1715" y="2954" width="318" height="60" as="geometry" />
          </mxCell>
        </UserObject>
      </root>
    </mxGraphModel>
  </diagram>
</mxfile>
